<?xml version="1.0" encoding="utf-8" standalone="no"?>
<!DOCTYPE svg PUBLIC "-//W3C//DTD SVG 1.1//EN"
  "http://www.w3.org/Graphics/SVG/1.1/DTD/svg11.dtd">
<!-- Created with matplotlib (http://matplotlib.org/) -->
<svg height="516pt" version="1.1" viewBox="0 0 629 516" width="629pt" xmlns="http://www.w3.org/2000/svg" xmlns:xlink="http://www.w3.org/1999/xlink">
 <defs>
  <style type="text/css">
*{stroke-linecap:butt;stroke-linejoin:round;stroke-miterlimit:100000;}
  </style>
 </defs>
 <g id="figure_1">
  <g id="patch_1">
   <path d="M 0 516.8 
L 629.446376 516.8 
L 629.446376 0 
L 0 0 
z
" style="fill:#ffffff;"/>
  </g>
  <g id="axes_1">
   <g id="patch_2">
    <path d="M 73.319368 460.615625 
L 622.246376 460.615625 
L 622.246376 7.2 
L 73.319368 7.2 
z
" style="fill:#ffffff;"/>
   </g>
   <g id="matplotlib.axis_1">
    <g id="xtick_1">
     <g id="line2d_1">
      <defs>
       <path d="M 0 0 
L 0 -10 
" id="m8158b8fa3f" style="stroke:#000000;stroke-width:1.5;"/>
      </defs>
      <g>
       <use style="stroke:#000000;stroke-width:1.5;" x="86.2947566482" xlink:href="#m8158b8fa3f" y="460.615625"/>
      </g>
     </g>
     <g id="line2d_2">
      <defs>
       <path d="M 0 0 
L 0 10 
" id="mc96b8058e2" style="stroke:#000000;stroke-width:1.5;"/>
      </defs>
      <g>
       <use style="stroke:#000000;stroke-width:1.5;" x="86.2947566482" xlink:href="#mc96b8058e2" y="7.2"/>
      </g>
     </g>
     <g id="text_1">
      <!-- $0.125$ -->
      <defs>
       <path d="M 15.40625 51.796875 
C 18.796875 51 21.5 51 23 51 
C 25.40625 51 31.09375 51 37.796875 55.109375 
C 40.90625 56.984375 46.09375 61.5 46.09375 63.796875 
C 46.09375 64.296875 46.09375 65.5 44.90625 65.5 
C 44.796875 65.5 44.59375 65.5 43.59375 64.984375 
C 39 63.34375 34.09375 62.21875 28.5 62.21875 
C 22.796875 62.21875 18 63.3125 13.296875 65 
C 12.59375 65.203125 12.296875 65.40625 12 65.40625 
C 10.796875 65.40625 10.796875 64.40625 10.796875 62.71875 
L 10.796875 33.796875 
C 10.796875 31.90625 10.796875 30.8125 12.796875 30.8125 
C 13.796875 30.8125 14 30.921875 14.796875 31.90625 
C 16 33.3125 19.59375 37.71875 28.09375 37.71875 
C 37.296875 37.71875 37.296875 28.359375 37.296875 20.5 
C 37.296875 13.3125 37.296875 2.96875 25 2.96875 
C 21.296875 2.96875 15 4.359375 11.59375 10 
C 16.90625 10 18.203125 13.984375 18.203125 16.171875 
C 18.203125 19.75 15.59375 22.421875 11.90625 22.421875 
C 8.90625 22.421875 5.59375 20.640625 5.59375 15.96875 
C 5.59375 7.34375 13.5 -1 25.40625 -1 
C 40.796875 -1 50.5 7.859375 50.5 20.203125 
C 50.5 32.34375 42.203125 41 28.5 41 
C 24.5 41 19.703125 40.203125 15.40625 37.015625 
z
" id="CMBX12-53"/>
       <path d="M 34.59375 62.109375 
C 34.59375 65 34.40625 65 31.203125 65 
C 23.796875 59 12.703125 59 10.5 59 
L 8.59375 59 
L 8.59375 54.734375 
L 10.5 54.734375 
C 14 54.734375 19.296875 55.328125 23.296875 56.625 
L 23.296875 4.171875 
L 9.40625 4.171875 
L 9.40625 0 
C 13.59375 0 24.09375 0 28.796875 0 
C 33.5 0 44.09375 0 48.296875 0 
L 48.296875 4.171875 
L 34.59375 4.171875 
z
" id="CMBX12-49"/>
       <path d="M 51.703125 31.84375 
C 51.703125 41.375 51.703125 65.28125 28.09375 65.28125 
C 4.40625 65.28125 4.40625 41.46875 4.40625 31.84375 
C 4.40625 22.3125 4.40625 -1 28 -1 
C 51.59375 -1 51.703125 22.015625 51.703125 31.84375 
M 28.09375 2.28125 
C 24.90625 2.28125 22.5 3.5625 20.5 5.65625 
C 18 8.140625 16.40625 9.703125 16.40625 33.03125 
C 16.40625 39.984375 16.40625 46.3125 17.203125 51.484375 
C 18.59375 61.3125 25.796875 62 28 62 
C 31.203125 62 37.40625 60.515625 38.796875 52.1875 
C 39.703125 47.109375 39.703125 39.078125 39.703125 33.03125 
C 39.703125 9.609375 38.203125 8.234375 35.203125 5.25 
C 33.203125 3.265625 30.5 2.28125 28.09375 2.28125 
" id="CMBX12-48"/>
       <path d="M 50.5 21.375 
L 46.296875 21.375 
C 46 19.28125 45.296875 13.40625 43.796875 12.421875 
C 43 11.71875 35.203125 11.71875 33.703125 11.71875 
L 18.203125 11.71875 
C 22 14.90625 31.09375 22.46875 32.59375 23.578125 
C 43.703125 31.84375 50.5 36.90625 50.5 46.46875 
C 50.5 58.203125 39.796875 65.28125 26.59375 65.28125 
C 15.296875 65.28125 5.59375 58.90625 5.59375 49.453125 
C 5.59375 44.171875 9.90625 42.6875 12.203125 42.6875 
C 15.296875 42.6875 18.90625 44.765625 18.90625 49.359375 
C 18.90625 53.546875 15.796875 55.625 12.703125 56.03125 
C 16.703125 60.609375 22 61 24.09375 61 
C 33.296875 61 37.703125 53.546875 37.703125 46.375 
C 37.703125 38.609375 32.40625 31.453125 28.296875 27.171875 
L 6.59375 4.578125 
C 5.59375 3.671875 5.59375 3.484375 5.59375 1.6875 
L 5.59375 0 
L 47.59375 0 
z
" id="CMBX12-50"/>
       <path d="M 23.703125 7.765625 
C 23.703125 12.046875 20.203125 15.53125 15.90625 15.53125 
C 11.59375 15.53125 8.09375 12.046875 8.09375 7.765625 
C 8.09375 3.484375 11.59375 0 15.90625 0 
C 20.203125 0 23.703125 3.484375 23.703125 7.765625 
" id="CMMIB10-58"/>
      </defs>
      <g transform="translate(65.8160099561 482.443158955)scale(0.16 -0.16)">
       <use transform="scale(0.996264009963)" xlink:href="#CMBX12-48"/>
       <use transform="translate(56.0398505604 0.0)scale(0.996264009963)" xlink:href="#CMMIB10-58"/>
       <use transform="translate(87.86478197 0.0)scale(0.996264009963)" xlink:href="#CMBX12-49"/>
       <use transform="translate(143.90463253 0.0)scale(0.996264009963)" xlink:href="#CMBX12-50"/>
       <use transform="translate(199.944483091 0.0)scale(0.996264009963)" xlink:href="#CMBX12-53"/>
      </g>
     </g>
    </g>
    <g id="xtick_2">
     <g id="line2d_3">
      <g>
       <use style="stroke:#000000;stroke-width:1.5;" x="173.457461788" xlink:href="#m8158b8fa3f" y="460.615625"/>
      </g>
     </g>
     <g id="line2d_4">
      <g>
       <use style="stroke:#000000;stroke-width:1.5;" x="173.457461788" xlink:href="#mc96b8058e2" y="7.2"/>
      </g>
     </g>
     <g id="text_2">
      <!-- $0.25$ -->
      <g transform="translate(157.46190314 482.443158955)scale(0.16 -0.16)">
       <use transform="scale(0.996264009963)" xlink:href="#CMBX12-48"/>
       <use transform="translate(56.0398505604 0.0)scale(0.996264009963)" xlink:href="#CMMIB10-58"/>
       <use transform="translate(87.86478197 0.0)scale(0.996264009963)" xlink:href="#CMBX12-50"/>
       <use transform="translate(143.90463253 0.0)scale(0.996264009963)" xlink:href="#CMBX12-53"/>
      </g>
     </g>
    </g>
    <g id="xtick_3">
     <g id="line2d_5">
      <g>
       <use style="stroke:#000000;stroke-width:1.5;" x="260.620166927" xlink:href="#m8158b8fa3f" y="460.615625"/>
      </g>
     </g>
     <g id="line2d_6">
      <g>
       <use style="stroke:#000000;stroke-width:1.5;" x="260.620166927" xlink:href="#mc96b8058e2" y="7.2"/>
      </g>
     </g>
     <g id="text_3">
      <!-- $0.5$ -->
      <g transform="translate(249.107796325 482.443158955)scale(0.16 -0.16)">
       <use transform="scale(0.996264009963)" xlink:href="#CMBX12-48"/>
       <use transform="translate(56.0398505604 0.0)scale(0.996264009963)" xlink:href="#CMMIB10-58"/>
       <use transform="translate(87.86478197 0.0)scale(0.996264009963)" xlink:href="#CMBX12-53"/>
      </g>
     </g>
    </g>
    <g id="xtick_4">
     <g id="line2d_7">
      <g>
       <use style="stroke:#000000;stroke-width:1.5;" x="347.782872067" xlink:href="#m8158b8fa3f" y="460.615625"/>
      </g>
     </g>
     <g id="line2d_8">
      <g>
       <use style="stroke:#000000;stroke-width:1.5;" x="347.782872067" xlink:href="#mc96b8058e2" y="7.2"/>
      </g>
     </g>
     <g id="text_4">
      <!-- $1.0$ -->
      <g transform="translate(336.270501464 482.443158955)scale(0.16 -0.16)">
       <use transform="scale(0.996264009963)" xlink:href="#CMBX12-49"/>
       <use transform="translate(56.0398505604 0.0)scale(0.996264009963)" xlink:href="#CMMIB10-58"/>
       <use transform="translate(87.86478197 0.0)scale(0.996264009963)" xlink:href="#CMBX12-48"/>
      </g>
     </g>
    </g>
    <g id="xtick_5">
     <g id="line2d_9">
      <g>
       <use style="stroke:#000000;stroke-width:1.5;" x="434.945577206" xlink:href="#m8158b8fa3f" y="460.615625"/>
      </g>
     </g>
     <g id="line2d_10">
      <g>
       <use style="stroke:#000000;stroke-width:1.5;" x="434.945577206" xlink:href="#mc96b8058e2" y="7.2"/>
      </g>
     </g>
     <g id="text_5">
      <!-- $2.0$ -->
      <g transform="translate(423.433206604 482.443158955)scale(0.16 -0.16)">
       <use transform="scale(0.996264009963)" xlink:href="#CMBX12-50"/>
       <use transform="translate(56.0398505604 0.0)scale(0.996264009963)" xlink:href="#CMMIB10-58"/>
       <use transform="translate(87.86478197 0.0)scale(0.996264009963)" xlink:href="#CMBX12-48"/>
      </g>
     </g>
    </g>
    <g id="xtick_6">
     <g id="line2d_11">
      <g>
       <use style="stroke:#000000;stroke-width:1.5;" x="522.108282346" xlink:href="#m8158b8fa3f" y="460.615625"/>
      </g>
     </g>
     <g id="line2d_12">
      <g>
       <use style="stroke:#000000;stroke-width:1.5;" x="522.108282346" xlink:href="#mc96b8058e2" y="7.2"/>
      </g>
     </g>
     <g id="text_6">
      <!-- $4.0$ -->
      <defs>
       <path d="M 43.296875 15.71875 
L 53 15.71875 
L 53 20 
L 43.296875 20 
L 43.296875 62.609375 
C 43.296875 65.09375 43.203125 65.5 40.703125 65.5 
C 38.90625 65.5 38.703125 65.5 37.5 64 
L 3.09375 20 
L 3.09375 15.71875 
L 31.5 15.71875 
L 31.5 4.171875 
L 20.59375 4.171875 
L 20.59375 0 
C 23.5 0 33.40625 0 37 0 
C 40.40625 0 50.296875 0 53 -0.09375 
L 53 4.171875 
L 43.296875 4.171875 
z
M 32.40625 51.59375 
L 32.40625 20 
L 7.703125 20 
z
" id="CMBX12-52"/>
      </defs>
      <g transform="translate(510.595911743 482.443158955)scale(0.16 -0.16)">
       <use transform="scale(0.996264009963)" xlink:href="#CMBX12-52"/>
       <use transform="translate(56.0398505604 0.0)scale(0.996264009963)" xlink:href="#CMMIB10-58"/>
       <use transform="translate(87.86478197 0.0)scale(0.996264009963)" xlink:href="#CMBX12-48"/>
      </g>
     </g>
    </g>
    <g id="xtick_7">
     <g id="line2d_13">
      <g>
       <use style="stroke:#000000;stroke-width:1.5;" x="609.270987485" xlink:href="#m8158b8fa3f" y="460.615625"/>
      </g>
     </g>
     <g id="line2d_14">
      <g>
       <use style="stroke:#000000;stroke-width:1.5;" x="609.270987485" xlink:href="#mc96b8058e2" y="7.2"/>
      </g>
     </g>
     <g id="text_7">
      <!-- $8.0$ -->
      <defs>
       <path d="M 37.703125 36.921875 
C 42.703125 39.515625 48.296875 43.203125 48.296875 51 
C 48.296875 61.28125 39.09375 65.671875 28.203125 65.671875 
C 14.90625 65.671875 7.796875 58.09375 7.796875 48.40625 
C 7.796875 43.03125 10.5 37.03125 17.90625 33.140625 
C 6.59375 28.140625 4.703125 21.265625 4.703125 16.078125 
C 4.703125 4.59375 14.703125 -1 27.90625 -1 
C 42.703125 -1 51.40625 6.96875 51.40625 18.5625 
C 51.40625 29.4375 42.796875 34.140625 37.703125 36.921875 
M 19.703125 47.265625 
C 17.703125 48.375 14.90625 50.671875 14.90625 53.984375 
C 14.90625 62 25.59375 62 27.90625 62 
C 36.40625 62 41.203125 57.53125 41.203125 50.96875 
C 41.203125 46.890625 39.40625 42.609375 33.703125 39.328125 
z
M 22 30.59375 
L 35.796875 22.734375 
C 39.09375 20.84375 43.40625 18.46875 43.40625 13.40625 
C 43.40625 5.453125 35.40625 2.96875 28.203125 2.96875 
C 18.296875 2.96875 12.703125 8.234375 12.703125 16.078125 
C 12.703125 23.328125 17.203125 27.90625 22 30.59375 
" id="CMBX12-56"/>
      </defs>
      <g transform="translate(597.758616883 482.443158955)scale(0.16 -0.16)">
       <use transform="scale(0.996264009963)" xlink:href="#CMBX12-56"/>
       <use transform="translate(56.0398505604 0.0)scale(0.996264009963)" xlink:href="#CMMIB10-58"/>
       <use transform="translate(87.86478197 0.0)scale(0.996264009963)" xlink:href="#CMBX12-48"/>
      </g>
     </g>
    </g>
    <g id="xtick_8">
     <g id="line2d_15">
      <defs>
       <path d="M 0 0 
L 0 -5 
" id="m6f9926099a" style="stroke:#000000;"/>
      </defs>
      <g>
       <use style="stroke:#000000;" x="145.397338177" xlink:href="#m6f9926099a" y="460.615625"/>
      </g>
     </g>
     <g id="line2d_16">
      <defs>
       <path d="M 0 0 
L 0 5 
" id="mab71de9dd9" style="stroke:#000000;"/>
      </defs>
      <g>
       <use style="stroke:#000000;" x="145.397338177" xlink:href="#mab71de9dd9" y="7.2"/>
      </g>
     </g>
    </g>
    <g id="xtick_9">
     <g id="line2d_17">
      <g>
       <use style="stroke:#000000;" x="196.384252145" xlink:href="#m6f9926099a" y="460.615625"/>
      </g>
     </g>
     <g id="line2d_18">
      <g>
       <use style="stroke:#000000;" x="196.384252145" xlink:href="#mab71de9dd9" y="7.2"/>
      </g>
     </g>
    </g>
    <g id="xtick_10">
     <g id="line2d_19">
      <g>
       <use style="stroke:#000000;" x="232.560043316" xlink:href="#m6f9926099a" y="460.615625"/>
      </g>
     </g>
     <g id="line2d_20">
      <g>
       <use style="stroke:#000000;" x="232.560043316" xlink:href="#mab71de9dd9" y="7.2"/>
      </g>
     </g>
    </g>
    <g id="xtick_11">
     <g id="line2d_21">
      <g>
       <use style="stroke:#000000;" x="260.620166927" xlink:href="#m6f9926099a" y="460.615625"/>
      </g>
     </g>
     <g id="line2d_22">
      <g>
       <use style="stroke:#000000;" x="260.620166927" xlink:href="#mab71de9dd9" y="7.2"/>
      </g>
     </g>
    </g>
    <g id="xtick_12">
     <g id="line2d_23">
      <g>
       <use style="stroke:#000000;" x="283.546957284" xlink:href="#m6f9926099a" y="460.615625"/>
      </g>
     </g>
     <g id="line2d_24">
      <g>
       <use style="stroke:#000000;" x="283.546957284" xlink:href="#mab71de9dd9" y="7.2"/>
      </g>
     </g>
    </g>
    <g id="xtick_13">
     <g id="line2d_25">
      <g>
       <use style="stroke:#000000;" x="302.931282331" xlink:href="#m6f9926099a" y="460.615625"/>
      </g>
     </g>
     <g id="line2d_26">
      <g>
       <use style="stroke:#000000;" x="302.931282331" xlink:href="#mab71de9dd9" y="7.2"/>
      </g>
     </g>
    </g>
    <g id="xtick_14">
     <g id="line2d_27">
      <g>
       <use style="stroke:#000000;" x="319.722748456" xlink:href="#m6f9926099a" y="460.615625"/>
      </g>
     </g>
     <g id="line2d_28">
      <g>
       <use style="stroke:#000000;" x="319.722748456" xlink:href="#mab71de9dd9" y="7.2"/>
      </g>
     </g>
    </g>
    <g id="xtick_15">
     <g id="line2d_29">
      <g>
       <use style="stroke:#000000;" x="334.533871252" xlink:href="#m6f9926099a" y="460.615625"/>
      </g>
     </g>
     <g id="line2d_30">
      <g>
       <use style="stroke:#000000;" x="334.533871252" xlink:href="#mab71de9dd9" y="7.2"/>
      </g>
     </g>
    </g>
    <g id="xtick_16">
     <g id="line2d_31">
      <g>
       <use style="stroke:#000000;" x="434.945577206" xlink:href="#m6f9926099a" y="460.615625"/>
      </g>
     </g>
     <g id="line2d_32">
      <g>
       <use style="stroke:#000000;" x="434.945577206" xlink:href="#mab71de9dd9" y="7.2"/>
      </g>
     </g>
    </g>
    <g id="xtick_17">
     <g id="line2d_33">
      <g>
       <use style="stroke:#000000;" x="485.932491174" xlink:href="#m6f9926099a" y="460.615625"/>
      </g>
     </g>
     <g id="line2d_34">
      <g>
       <use style="stroke:#000000;" x="485.932491174" xlink:href="#mab71de9dd9" y="7.2"/>
      </g>
     </g>
    </g>
    <g id="xtick_18">
     <g id="line2d_35">
      <g>
       <use style="stroke:#000000;" x="522.108282346" xlink:href="#m6f9926099a" y="460.615625"/>
      </g>
     </g>
     <g id="line2d_36">
      <g>
       <use style="stroke:#000000;" x="522.108282346" xlink:href="#mab71de9dd9" y="7.2"/>
      </g>
     </g>
    </g>
    <g id="xtick_19">
     <g id="line2d_37">
      <g>
       <use style="stroke:#000000;" x="550.168405956" xlink:href="#m6f9926099a" y="460.615625"/>
      </g>
     </g>
     <g id="line2d_38">
      <g>
       <use style="stroke:#000000;" x="550.168405956" xlink:href="#mab71de9dd9" y="7.2"/>
      </g>
     </g>
    </g>
    <g id="xtick_20">
     <g id="line2d_39">
      <g>
       <use style="stroke:#000000;" x="573.095196314" xlink:href="#m6f9926099a" y="460.615625"/>
      </g>
     </g>
     <g id="line2d_40">
      <g>
       <use style="stroke:#000000;" x="573.095196314" xlink:href="#mab71de9dd9" y="7.2"/>
      </g>
     </g>
    </g>
    <g id="xtick_21">
     <g id="line2d_41">
      <g>
       <use style="stroke:#000000;" x="592.47952136" xlink:href="#m6f9926099a" y="460.615625"/>
      </g>
     </g>
     <g id="line2d_42">
      <g>
       <use style="stroke:#000000;" x="592.47952136" xlink:href="#mab71de9dd9" y="7.2"/>
      </g>
     </g>
    </g>
    <g id="xtick_22">
     <g id="line2d_43">
      <g>
       <use style="stroke:#000000;" x="609.270987485" xlink:href="#m6f9926099a" y="460.615625"/>
      </g>
     </g>
     <g id="line2d_44">
      <g>
       <use style="stroke:#000000;" x="609.270987485" xlink:href="#mab71de9dd9" y="7.2"/>
      </g>
     </g>
    </g>
    <g id="text_8">
     <!-- $\mu_R / m_t$ -->
     <defs>
      <path d="M 43.59375 62.203125 
C 44 63.609375 44.09375 63.703125 44.203125 63.796875 
C 44.796875 64 49.203125 64 51.703125 64 
C 60.796875 64 70.203125 64 70.203125 55.640625 
C 70.203125 55.546875 69.796875 45.765625 64.59375 40.53125 
C 63.203125 39.125 58.703125 36 48.703125 36 
L 37.09375 36 
z
M 63.296875 34.09375 
C 81.203125 38.875 84.40625 48.34375 84.40625 53.4375 
C 84.40625 63.40625 73.703125 68.6875 58.703125 68.6875 
L 24 68.6875 
C 22 68.6875 20.296875 68.6875 20.296875 65.796875 
C 20.296875 64 21.59375 64 24.5 64 
C 26.59375 64 28.5 64 30.59375 64 
L 16.296875 6.90625 
C 15.90625 5.296875 15.796875 5.203125 14 5 
C 12.296875 5 10.296875 5 8.703125 5 
C 6.09375 5 5.90625 5 5.5 4.8125 
C 4.296875 4.109375 4.296875 2.515625 4.296875 2.125 
C 4.296875 1.921875 4.40625 0.328125 6.5 0.328125 
C 9 0.328125 11.59375 0.328125 14.09375 0.328125 
C 16.5 0.328125 19 0.328125 21.40625 0.328125 
C 24.796875 0.328125 33.296875 0.328125 36.703125 0.328125 
C 37.5 0.328125 38.296875 0.328125 38.796875 1.03125 
C 39.296875 1.515625 39.5 3.109375 39.5 3.21875 
C 39.5 5 38.09375 5 35.40625 5 
C 33.296875 5 31.40625 5 29.296875 5 
L 36.203125 32.421875 
L 48.296875 32.421875 
C 51.203125 32.421875 58.203125 31.71875 58.203125 24.203125 
C 58.203125 22.8125 57.296875 19.21875 56.59375 16.703125 
C 55.59375 12.5 55.203125 11 55.203125 9.390625 
C 55.203125 -1 68.59375 -1 73.796875 -1 
C 84.40625 -1 88.09375 8.640625 88.09375 10.1875 
C 88.09375 11.90625 86.296875 11.90625 85.703125 11.90625 
C 84 11.90625 83.703125 11.421875 83.296875 9.921875 
C 82 5.953125 78.40625 2.1875 74.59375 2.1875 
C 71.90625 2.1875 70 3.28125 70 8.28125 
C 70 9.765625 70.09375 11.359375 71.40625 19.34375 
C 71.59375 20.53125 71.90625 22.421875 71.90625 23.328125 
C 71.90625 27.203125 69.796875 31.703125 63.296875 34.09375 
" id="CMMIB10-82"/>
      <path d="M 50.296875 69.234375 
C 51 70.828125 51 71.015625 51 71.421875 
C 51 73.3125 49.40625 74.5 48 74.5 
C 45.90625 74.5 45.296875 73.015625 44.703125 71.515625 
L 7.09375 -19.71875 
C 6.40625 -21.3125 6.40625 -21.515625 6.40625 -21.90625 
C 6.40625 -23.796875 8 -25 9.40625 -25 
C 11.5 -25 12.203125 -23.296875 12.703125 -22.109375 
z
" id="CMMIB10-61"/>
      <path d="M 43.09375 10.8125 
C 42.5 8.3125 41.40625 4.109375 41.40625 3.390625 
C 41.40625 1.3125 43 -1 46.09375 -1 
C 47.796875 -1 50.90625 -0.109375 52.40625 3.296875 
C 53.203125 5.40625 57.703125 24.3125 58.703125 28.40625 
C 59 29.90625 59.203125 30.421875 61.296875 33.203125 
C 63.90625 36.625 68.59375 41.40625 75.59375 41.40625 
C 78.203125 41.40625 80.59375 40.421875 80.59375 35.515625 
C 80.59375 29.796875 76.203125 18.109375 74.296875 13.09375 
C 73.203125 10.390625 72.90625 9.703125 72.90625 8 
C 72.90625 2.203125 78.703125 -1 84.203125 -1 
C 94.796875 -1 99.796875 12.59375 99.796875 14.59375 
C 99.796875 15.984375 98.296875 15.984375 97.40625 15.984375 
C 96.203125 15.984375 95.5 15.984375 95.09375 14.6875 
C 91.796875 3.578125 86.40625 2.578125 84.796875 2.578125 
C 84.09375 2.578125 83.09375 2.578125 83.09375 4.6875 
C 83.09375 6.984375 84.09375 9.484375 85.09375 11.984375 
C 86.703125 16.09375 91.296875 27.796875 91.296875 33.390625 
C 91.296875 42.59375 83.59375 45 76.40625 45 
C 74.09375 45 66.5 45 59 36.40625 
C 58.703125 37.703125 58 40.796875 54.203125 42.90625 
C 50.59375 45 45.59375 45 44.5 45 
C 42.40625 45 35.09375 45 28 37.40625 
C 26.59375 42.390625 21.09375 45 15.703125 45 
C 12 45 9.203125 42.890625 7 39.296875 
C 4.5 35.296875 3.203125 29.90625 3.203125 29.390625 
C 3.203125 28 4.703125 28 5.59375 28 
C 6.703125 28 7.09375 28 7.59375 28.5 
C 7.796875 28.6875 7.796875 28.890625 8.40625 31.390625 
C 10.40625 39.203125 12.59375 41.40625 15.203125 41.40625 
C 16.703125 41.40625 17.5 40.421875 17.5 37.71875 
C 17.5 36 17.09375 34.40625 16.09375 30.421875 
C 15.40625 27.609375 14.40625 23.609375 13.90625 21.40625 
L 10.296875 7.40625 
C 10 6 9.5 4.109375 9.5 3.390625 
C 9.5 1.3125 11.09375 -1 14.203125 -1 
C 19.40625 -1 20.59375 3.59375 21.296875 6.59375 
C 22.296875 10.296875 23.09375 13.5 24.09375 17.8125 
C 24.5 19.109375 27 29.40625 27.203125 29.703125 
C 27.296875 30.3125 30.09375 34.8125 33.40625 37.515625 
C 36.203125 39.703125 39.5 41.40625 43.703125 41.40625 
C 46.296875 41.40625 48.703125 40.421875 48.703125 35.515625 
C 48.703125 33.203125 48 30.3125 47.59375 28.8125 
z
" id="CMMIB10-109"/>
      <path d="M 25.203125 39.3125 
L 34.09375 39.3125 
C 36.09375 39.3125 36.296875 39.3125 36.796875 39.8125 
C 37.40625 40.21875 37.703125 41.609375 37.703125 42.203125 
C 37.703125 44 36 44 34.40625 44 
L 26.40625 44 
L 29.59375 56.96875 
C 30 58.578125 30 59.171875 30 59.5625 
C 30 62.78125 27.40625 64 25.296875 64 
C 23.796875 64 21.09375 63.296875 19.5 60.484375 
C 19.09375 59.671875 17.90625 55.0625 17.203125 52.234375 
L 15.203125 44 
L 6.203125 44 
C 4.203125 44 2.5 44 2.5 41.109375 
C 2.5 39.3125 4.09375 39.3125 5.90625 39.3125 
L 14 39.3125 
L 8.296875 16.625 
C 7.59375 14.03125 6.59375 9.84375 6.59375 8.75 
C 6.59375 2.28125 13 -1 19.203125 -1 
C 31.09375 -1 37.90625 12.84375 37.90625 14.53125 
C 37.90625 15.921875 36.40625 15.921875 35.5 15.921875 
C 33.796875 15.921875 33.703125 15.828125 33 14.328125 
C 29.203125 5.765625 23.59375 2.578125 19.703125 2.578125 
C 18.796875 2.578125 17.296875 2.578125 17.296875 6.265625 
C 17.296875 8.15625 17.59375 9.25 17.90625 10.546875 
z
" id="CMMIB10-116"/>
      <path d="M 27.5 32.640625 
C 28.09375 35.203125 29.203125 39.46875 29.203125 40.140625 
C 29.203125 42.234375 27.59375 44.5 24.5 44.5 
C 19.296875 44.5 18 39.5625 17.703125 38.375 
L 4.40625 -14.078125 
C 4 -15.65625 4 -16.25 4 -16.65625 
C 4 -19.796875 6.59375 -21 8.703125 -21 
C 10.59375 -21 13.296875 -19.921875 14.703125 -17.15625 
C 15.296875 -15.96875 18.59375 -2.453125 19.296875 0.59375 
C 23.40625 -1 27.90625 -1 29.203125 -1 
C 32.59375 -1 37.203125 -0.40625 43.203125 4.984375 
C 45.59375 0.390625 51.203125 -1 54.90625 -1 
C 58.59375 -1 61.5 1.109375 63.59375 4.703125 
C 66.09375 8.703125 67.40625 14.09375 67.40625 14.59375 
C 67.40625 16 65.90625 16 65 16 
C 63.90625 16 63.5 16 63 15.5 
C 62.796875 15.296875 62.796875 15.109375 62.203125 12.59375 
C 60.203125 4.578125 57.90625 2.578125 55.40625 2.578125 
C 54.296875 2.578125 53.09375 2.96875 53.09375 6.265625 
C 53.09375 7.953125 53.5 9.546875 54.5 13.53125 
L 57.09375 23.6875 
C 57.59375 25.875 58.59375 29.953125 59.296875 32.640625 
C 59.90625 34.9375 60.90625 38.921875 60.90625 39.609375 
C 60.90625 41.71875 59.296875 44 56.203125 44 
C 54.203125 44 50.703125 42.8125 49.59375 38.71875 
L 42.703125 11.140625 
C 42.296875 9.34375 40.59375 7.65625 38.796875 6.171875 
C 35.59375 3.46875 32.59375 2.578125 29.90625 2.578125 
C 23.09375 2.578125 22.5 7.421875 22.5 10.390625 
C 22.5 13.0625 23.09375 15.4375 23.5 17.203125 
z
" id="CMMIB10-22"/>
     </defs>
     <g transform="translate(316.741638144 505.965694685)scale(0.192 -0.192)">
      <use transform="translate(0.0 14.9439145441)scale(0.996264009963)" xlink:href="#CMMIB10-22"/>
      <use transform="translate(70.5223910093 0.0)scale(0.697381766617)" xlink:href="#CMMIB10-82"/>
      <use transform="translate(132.150158342 14.9439145441)scale(0.996264009963)" xlink:href="#CMMIB10-61"/>
      <use transform="translate(189.435034879 14.9439145441)scale(0.996264009963)" xlink:href="#CMMIB10-109"/>
      <use transform="translate(292.289716785 0.0)scale(0.697381766617)" xlink:href="#CMMIB10-116"/>
     </g>
    </g>
   </g>
   <g id="matplotlib.axis_2">
    <g id="ytick_1">
     <g id="line2d_45">
      <defs>
       <path d="M 0 0 
L 10 0 
" id="m96e34234e4" style="stroke:#000000;stroke-width:1.5;"/>
      </defs>
      <g>
       <use style="stroke:#000000;stroke-width:1.5;" x="73.3193680437" xlink:href="#m96e34234e4" y="440.005823864"/>
      </g>
     </g>
     <g id="line2d_46">
      <defs>
       <path d="M 0 0 
L -10 0 
" id="m9f063ffdb3" style="stroke:#000000;stroke-width:1.5;"/>
      </defs>
      <g>
       <use style="stroke:#000000;stroke-width:1.5;" x="622.24637609" xlink:href="#m9f063ffdb3" y="440.005823864"/>
      </g>
     </g>
     <g id="text_9">
      <!-- $0.80$ -->
      <g transform="translate(31.3282507491 444.405295693)scale(0.16 -0.16)">
       <use transform="scale(0.996264009963)" xlink:href="#CMBX12-48"/>
       <use transform="translate(56.0398505604 0.0)scale(0.996264009963)" xlink:href="#CMMIB10-58"/>
       <use transform="translate(87.86478197 0.0)scale(0.996264009963)" xlink:href="#CMBX12-56"/>
       <use transform="translate(143.90463253 0.0)scale(0.996264009963)" xlink:href="#CMBX12-48"/>
      </g>
     </g>
    </g>
    <g id="ytick_2">
     <g id="line2d_47">
      <g>
       <use style="stroke:#000000;stroke-width:1.5;" x="73.3193680437" xlink:href="#m96e34234e4" y="381.12067776"/>
      </g>
     </g>
     <g id="line2d_48">
      <g>
       <use style="stroke:#000000;stroke-width:1.5;" x="622.24637609" xlink:href="#m9f063ffdb3" y="381.12067776"/>
      </g>
     </g>
     <g id="text_10">
      <!-- $0.90$ -->
      <defs>
       <path d="M 38.703125 28.375 
C 38.703125 21.375 38.703125 2.96875 23.09375 2.96875 
C 20 2.96875 16.40625 3.765625 14.296875 5.375 
C 17.203125 5.96875 19.296875 8.078125 19.296875 11.296875 
C 19.296875 14.90625 16.59375 17.21875 13.40625 17.21875 
C 10.796875 17.21875 7.5 15.515625 7.5 11.109375 
C 7.5 4.109375 13 -1 23.296875 -1 
C 36 -1 51.40625 7.265625 51.40625 32.984375 
C 51.40625 39.671875 51.40625 65.578125 28.296875 65.578125 
C 14.5 65.578125 4.703125 57.625 4.703125 44 
C 4.703125 30.171875 14.296875 22.734375 26.296875 22.734375 
C 30.5 22.734375 35.5 24.21875 38.703125 31.265625 
z
M 27.296875 26 
C 17.40625 26 17.40625 34.046875 17.40625 43.796875 
C 17.40625 53.359375 17.40625 62 28.296875 62 
C 34.703125 62 37 56.34375 37.40625 55.25 
C 38.40625 52.25 38.59375 46.09375 38.59375 42.8125 
C 38.59375 35.859375 35.703125 26 27.296875 26 
" id="CMBX12-57"/>
      </defs>
      <g transform="translate(31.3282507491 385.520149589)scale(0.16 -0.16)">
       <use transform="scale(0.996264009963)" xlink:href="#CMBX12-48"/>
       <use transform="translate(56.0398505604 0.0)scale(0.996264009963)" xlink:href="#CMMIB10-58"/>
       <use transform="translate(87.86478197 0.0)scale(0.996264009963)" xlink:href="#CMBX12-57"/>
       <use transform="translate(143.90463253 0.0)scale(0.996264009963)" xlink:href="#CMBX12-48"/>
      </g>
     </g>
    </g>
    <g id="ytick_3">
     <g id="line2d_49">
      <g>
       <use style="stroke:#000000;stroke-width:1.5;" x="73.3193680437" xlink:href="#m96e34234e4" y="322.235531656"/>
      </g>
     </g>
     <g id="line2d_50">
      <g>
       <use style="stroke:#000000;stroke-width:1.5;" x="622.24637609" xlink:href="#m9f063ffdb3" y="322.235531656"/>
      </g>
     </g>
     <g id="text_11">
      <!-- $1.00$ -->
      <g transform="translate(31.3282507491 326.635003485)scale(0.16 -0.16)">
       <use transform="scale(0.996264009963)" xlink:href="#CMBX12-49"/>
       <use transform="translate(56.0398505604 0.0)scale(0.996264009963)" xlink:href="#CMMIB10-58"/>
       <use transform="translate(87.86478197 0.0)scale(0.996264009963)" xlink:href="#CMBX12-48"/>
       <use transform="translate(143.90463253 0.0)scale(0.996264009963)" xlink:href="#CMBX12-48"/>
      </g>
     </g>
    </g>
    <g id="ytick_4">
     <g id="line2d_51">
      <g>
       <use style="stroke:#000000;stroke-width:1.5;" x="73.3193680437" xlink:href="#m96e34234e4" y="263.350385552"/>
      </g>
     </g>
     <g id="line2d_52">
      <g>
       <use style="stroke:#000000;stroke-width:1.5;" x="622.24637609" xlink:href="#m9f063ffdb3" y="263.350385552"/>
      </g>
     </g>
     <g id="text_12">
      <!-- $1.10$ -->
      <g transform="translate(31.3282507491 267.749857381)scale(0.16 -0.16)">
       <use transform="scale(0.996264009963)" xlink:href="#CMBX12-49"/>
       <use transform="translate(56.0398505604 0.0)scale(0.996264009963)" xlink:href="#CMMIB10-58"/>
       <use transform="translate(87.86478197 0.0)scale(0.996264009963)" xlink:href="#CMBX12-49"/>
       <use transform="translate(143.90463253 0.0)scale(0.996264009963)" xlink:href="#CMBX12-48"/>
      </g>
     </g>
    </g>
    <g id="ytick_5">
     <g id="line2d_53">
      <g>
       <use style="stroke:#000000;stroke-width:1.5;" x="73.3193680437" xlink:href="#m96e34234e4" y="204.465239448"/>
      </g>
     </g>
     <g id="line2d_54">
      <g>
       <use style="stroke:#000000;stroke-width:1.5;" x="622.24637609" xlink:href="#m9f063ffdb3" y="204.465239448"/>
      </g>
     </g>
     <g id="text_13">
      <!-- $1.20$ -->
      <g transform="translate(31.3282507491 208.864711277)scale(0.16 -0.16)">
       <use transform="scale(0.996264009963)" xlink:href="#CMBX12-49"/>
       <use transform="translate(56.0398505604 0.0)scale(0.996264009963)" xlink:href="#CMMIB10-58"/>
       <use transform="translate(87.86478197 0.0)scale(0.996264009963)" xlink:href="#CMBX12-50"/>
       <use transform="translate(143.90463253 0.0)scale(0.996264009963)" xlink:href="#CMBX12-48"/>
      </g>
     </g>
    </g>
    <g id="ytick_6">
     <g id="line2d_55">
      <g>
       <use style="stroke:#000000;stroke-width:1.5;" x="73.3193680437" xlink:href="#m96e34234e4" y="145.580093344"/>
      </g>
     </g>
     <g id="line2d_56">
      <g>
       <use style="stroke:#000000;stroke-width:1.5;" x="622.24637609" xlink:href="#m9f063ffdb3" y="145.580093344"/>
      </g>
     </g>
     <g id="text_14">
      <!-- $1.30$ -->
      <defs>
       <path d="M 26.09375 33 
C 37.296875 33 37.296875 22.71875 37.296875 17.984375 
C 37.296875 13.53125 37.296875 3.0625 26.5 3.0625 
C 24.40625 3.0625 17.796875 3.0625 13 6.625 
C 17.296875 7.515625 18.796875 10.59375 18.796875 13.5625 
C 18.796875 17.625 15.90625 20.5 11.796875 20.5 
C 7.59375 20.5 4.703125 17.625 4.703125 13.46875 
C 4.703125 4.34375 14.703125 -1 27 -1 
C 43.5 -1 51.40625 8.015625 51.40625 17.921875 
C 51.40625 22.796875 48.90625 32.203125 33.40625 34.875 
C 42.203125 37.59375 48.296875 43.8125 48.296875 51.71875 
C 48.296875 59.25 41.09375 65.578125 27.203125 65.578125 
C 16 65.578125 7.796875 59.65625 7.796875 51.53125 
C 7.796875 46.515625 11.703125 44.90625 14.296875 44.90625 
C 17.203125 44.90625 20.703125 46.8125 20.703125 51.4375 
C 20.703125 53.765625 19.703125 57.171875 15 57.875 
C 19.203125 62 26 62 26.59375 62 
C 35.5 62 35.5 55.03125 35.5 52.015625 
C 35.5 48.984375 35.09375 44.328125 31.90625 40.203125 
C 29.296875 36.75 26.703125 36.5625 22.90625 36.5625 
C 21.703125 36.265625 19.703125 36.265625 19.296875 36.078125 
C 18.703125 35.78125 18.703125 35.078125 18.703125 34.6875 
C 18.703125 33 19.296875 33 21.296875 33 
z
" id="CMBX12-51"/>
      </defs>
      <g transform="translate(31.3282507491 149.979565173)scale(0.16 -0.16)">
       <use transform="scale(0.996264009963)" xlink:href="#CMBX12-49"/>
       <use transform="translate(56.0398505604 0.0)scale(0.996264009963)" xlink:href="#CMMIB10-58"/>
       <use transform="translate(87.86478197 0.0)scale(0.996264009963)" xlink:href="#CMBX12-51"/>
       <use transform="translate(143.90463253 0.0)scale(0.996264009963)" xlink:href="#CMBX12-48"/>
      </g>
     </g>
    </g>
    <g id="ytick_7">
     <g id="line2d_57">
      <g>
       <use style="stroke:#000000;stroke-width:1.5;" x="73.3193680437" xlink:href="#m96e34234e4" y="86.6949472403"/>
      </g>
     </g>
     <g id="line2d_58">
      <g>
       <use style="stroke:#000000;stroke-width:1.5;" x="622.24637609" xlink:href="#m9f063ffdb3" y="86.6949472403"/>
      </g>
     </g>
     <g id="text_15">
      <!-- $1.40$ -->
      <g transform="translate(31.3282507491 91.0944190695)scale(0.16 -0.16)">
       <use transform="scale(0.996264009963)" xlink:href="#CMBX12-49"/>
       <use transform="translate(56.0398505604 0.0)scale(0.996264009963)" xlink:href="#CMMIB10-58"/>
       <use transform="translate(87.86478197 0.0)scale(0.996264009963)" xlink:href="#CMBX12-52"/>
       <use transform="translate(143.90463253 0.0)scale(0.996264009963)" xlink:href="#CMBX12-48"/>
      </g>
     </g>
    </g>
    <g id="ytick_8">
     <g id="line2d_59">
      <g>
       <use style="stroke:#000000;stroke-width:1.5;" x="73.3193680437" xlink:href="#m96e34234e4" y="27.8098011364"/>
      </g>
     </g>
     <g id="line2d_60">
      <g>
       <use style="stroke:#000000;stroke-width:1.5;" x="622.24637609" xlink:href="#m9f063ffdb3" y="27.8098011364"/>
      </g>
     </g>
     <g id="text_16">
      <!-- $1.50$ -->
      <g transform="translate(31.3282507491 32.2092729656)scale(0.16 -0.16)">
       <use transform="scale(0.996264009963)" xlink:href="#CMBX12-49"/>
       <use transform="translate(56.0398505604 0.0)scale(0.996264009963)" xlink:href="#CMMIB10-58"/>
       <use transform="translate(87.86478197 0.0)scale(0.996264009963)" xlink:href="#CMBX12-53"/>
       <use transform="translate(143.90463253 0.0)scale(0.996264009963)" xlink:href="#CMBX12-48"/>
      </g>
     </g>
    </g>
    <g id="ytick_9">
     <g id="line2d_61">
      <defs>
       <path d="M 0 0 
L 5 0 
" id="mf134c443e3" style="stroke:#000000;"/>
      </defs>
      <g>
       <use style="stroke:#000000;" x="73.3193680437" xlink:href="#mf134c443e3" y="145.580093344"/>
      </g>
     </g>
     <g id="line2d_62">
      <defs>
       <path d="M 0 0 
L -5 0 
" id="m35dfbfa0e3" style="stroke:#000000;"/>
      </defs>
      <g>
       <use style="stroke:#000000;" x="622.24637609" xlink:href="#m35dfbfa0e3" y="145.580093344"/>
      </g>
     </g>
    </g>
    <g id="text_17">
     <!-- $\sigma(\mu_R) / \sigma(\mu_R = \mu_0)$ -->
     <defs>
      <path d="M 77.09375 32.546875 
C 78.59375 32.546875 81.203125 32.546875 81.203125 35.328125 
C 81.203125 38 78.5 38 77.203125 38 
L 10.203125 38 
C 8.90625 38 6.203125 38 6.203125 35.328125 
C 6.203125 32.546875 8.796875 32.546875 10.296875 32.546875 
z
M 77.203125 11 
C 78.5 11 81.203125 11 81.203125 13.6875 
C 81.203125 16.46875 78.59375 16.46875 77.09375 16.46875 
L 10.296875 16.46875 
C 8.796875 16.46875 6.203125 16.46875 6.203125 13.6875 
C 6.203125 11 8.90625 11 10.203125 11 
z
" id="CMBX12-61"/>
      <path d="M 33.90625 44 
C 13.296875 44 4.203125 25.171875 4.203125 14.828125 
C 4.203125 4.078125 12.296875 -1 23 -1 
C 41.296875 -1 51.90625 12.75 51.90625 26.890625 
C 51.90625 29.375 51.5 32.078125 50.5 34.46875 
L 60.09375 34.46875 
C 62 34.46875 63.59375 34.46875 65.09375 35.953125 
C 65.796875 36.640625 67.09375 37.84375 67.09375 40.125 
C 67.09375 44 63.59375 44 61.796875 44 
z
M 23.203125 2.578125 
C 14.5 2.578125 14.5 9.546875 14.5 11.15625 
C 14.5 14.921875 16.703125 24.390625 19 28.09375 
C 21 31.46875 24.296875 34.46875 31.90625 34.46875 
C 40.09375 34.46875 41.09375 31.0625 41.09375 27.5 
C 41.09375 24.5 39.09375 14.53125 35.90625 9.640625 
C 31.796875 3.46875 26 2.578125 23.203125 2.578125 
" id="CMMIB10-27"/>
      <path d="M 32.796875 24.703125 
C 32.796875 42.984375 25.90625 60.78125 11.703125 72.3125 
C 9.09375 74.5 8.90625 74.5 7.90625 74.5 
C 7.40625 74.5 6.203125 74.5 6.203125 73.3125 
C 6.203125 72.921875 6.203125 72.71875 8.09375 70.9375 
C 19.296875 59.796875 23.59375 42.3125 23.59375 24.8125 
C 23.59375 5.21875 18.703125 -10.875 7.5 -22.109375 
C 6.296875 -23.3125 6.203125 -23.40625 6.203125 -23.8125 
C 6.203125 -25 7.40625 -25 7.90625 -25 
C 8.796875 -25 9 -25 11.59375 -22.90625 
C 26 -11.484375 32.796875 6.8125 32.796875 24.703125 
" id="CMBX12-41"/>
      <path d="M 37.40625 -23.8125 
C 37.40625 -23.40625 37.40625 -23.203125 35.5 -21.421875 
C 24.296875 -10.296875 20 7.203125 20 24.6875 
C 20 44.28125 24.90625 60.390625 36.09375 71.609375 
C 37.296875 72.796875 37.40625 72.90625 37.40625 73.296875 
C 37.40625 74.5 36.203125 74.5 35.703125 74.5 
C 34.796875 74.5 34.59375 74.5 32 72.40625 
C 17.59375 60.984375 10.796875 42.6875 10.796875 24.8125 
C 10.796875 6.515625 17.703125 -11.28125 31.90625 -22.8125 
C 34.5 -25 34.703125 -25 35.703125 -25 
C 36.203125 -25 37.40625 -25 37.40625 -23.8125 
" id="CMBX12-40"/>
     </defs>
     <g transform="translate(22.6939454341 321.011775665)rotate(-90.0)scale(0.192 -0.192)">
      <use transform="translate(0.0 14.9439145441)scale(0.996264009963)" xlink:href="#CMMIB10-27"/>
      <use transform="translate(72.0213779625 14.9439145441)scale(0.996264009963)" xlink:href="#CMBX12-40"/>
      <use transform="translate(115.607928398 14.9439145441)scale(0.996264009963)" xlink:href="#CMMIB10-22"/>
      <use transform="translate(186.130319408 0.0)scale(0.697381766617)" xlink:href="#CMMIB10-82"/>
      <use transform="translate(247.75808674 14.9439145441)scale(0.996264009963)" xlink:href="#CMBX12-41"/>
      <use transform="translate(291.344637176 14.9439145441)scale(0.996264009963)" xlink:href="#CMMIB10-61"/>
      <use transform="translate(348.629513713 14.9439145441)scale(0.996264009963)" xlink:href="#CMMIB10-27"/>
      <use transform="translate(420.650891676 14.9439145441)scale(0.996264009963)" xlink:href="#CMBX12-40"/>
      <use transform="translate(464.237442112 14.9439145441)scale(0.996264009963)" xlink:href="#CMMIB10-22"/>
      <use transform="translate(534.759833121 0.0)scale(0.697381766617)" xlink:href="#CMMIB10-82"/>
      <use transform="translate(628.212531863 14.9439145441)scale(0.996264009963)" xlink:href="#CMBX12-61"/>
      <use transform="translate(747.210564144 14.9439145441)scale(0.996264009963)" xlink:href="#CMMIB10-22"/>
      <use transform="translate(817.732955154 0.0)scale(0.697381766617)" xlink:href="#CMBX12-48"/>
      <use transform="translate(857.458800129 14.9439145441)scale(0.996264009963)" xlink:href="#CMBX12-41"/>
     </g>
    </g>
   </g>
   <g id="LineCollection_1">
    <path clip-path="url(#p533d054143)" d="M 86.294757 63.360976 
L 86.294757 61.735425 
" style="fill:none;stroke:#3366ff;stroke-opacity:0.3;stroke-width:2.0;"/>
    <path clip-path="url(#p533d054143)" d="M 173.457462 176.707522 
L 173.457462 175.396184 
" style="fill:none;stroke:#3366ff;stroke-opacity:0.3;stroke-width:2.0;"/>
    <path clip-path="url(#p533d054143)" d="M 260.620167 259.435391 
L 260.620167 258.17562 
" style="fill:none;stroke:#3366ff;stroke-opacity:0.3;stroke-width:2.0;"/>
    <path clip-path="url(#p533d054143)" d="M 347.782872 322.759158 
L 347.782872 321.711905 
" style="fill:none;stroke:#3366ff;stroke-opacity:0.3;stroke-width:2.0;"/>
    <path clip-path="url(#p533d054143)" d="M 434.945577 374.896461 
L 434.945577 373.870312 
" style="fill:none;stroke:#3366ff;stroke-opacity:0.3;stroke-width:2.0;"/>
    <path clip-path="url(#p533d054143)" d="M 522.108282 402.201507 
L 522.108282 401.409575 
" style="fill:none;stroke:#3366ff;stroke-opacity:0.3;stroke-width:2.0;"/>
    <path clip-path="url(#p533d054143)" d="M 609.270987 449.824869 
L 609.270987 449.07159 
" style="fill:none;stroke:#3366ff;stroke-opacity:0.3;stroke-width:2.0;"/>
   </g>
   <g id="LineCollection_2">
    <path clip-path="url(#p533d054143)" d="M 86.294757 145.006039 
L 86.294757 140.687477 
" style="fill:none;stroke:#ff9900;stroke-opacity:0.3;stroke-width:2.0;"/>
    <path clip-path="url(#p533d054143)" d="M 173.457462 225.380106 
L 173.457462 221.753676 
" style="fill:none;stroke:#ff9900;stroke-opacity:0.3;stroke-width:2.0;"/>
    <path clip-path="url(#p533d054143)" d="M 260.620167 279.397305 
L 260.620167 276.067249 
" style="fill:none;stroke:#ff9900;stroke-opacity:0.3;stroke-width:2.0;"/>
    <path clip-path="url(#p533d054143)" d="M 347.782872 323.718679 
L 347.782872 320.752384 
" style="fill:none;stroke:#ff9900;stroke-opacity:0.3;stroke-width:2.0;"/>
    <path clip-path="url(#p533d054143)" d="M 434.945577 362.998021 
L 434.945577 360.230022 
" style="fill:none;stroke:#ff9900;stroke-opacity:0.3;stroke-width:2.0;"/>
    <path clip-path="url(#p533d054143)" d="M 522.108282 391.802364 
L 522.108282 389.445077 
" style="fill:none;stroke:#ff9900;stroke-opacity:0.3;stroke-width:2.0;"/>
    <path clip-path="url(#p533d054143)" d="M 609.270987 413.991815 
L 609.270987 411.772083 
" style="fill:none;stroke:#ff9900;stroke-opacity:0.3;stroke-width:2.0;"/>
   </g>
   <g id="line2d_63">
    <path clip-path="url(#p533d054143)" d="M 86.294757 62.548201 
L 173.457462 176.051853 
L 260.620167 258.805505 
L 347.782872 322.235532 
L 434.945577 374.383386 
L 522.108282 401.805541 
L 609.270987 449.448229 
" style="fill:none;opacity:0.3;stroke:#ee3311;stroke-linecap:square;stroke-width:2.0;"/>
   </g>
   <g id="line2d_64">
    <defs>
     <path d="M 3 0 
L -3 -0 
" id="mf114e4bb02" style="stroke:#3366ff;stroke-width:0.5;"/>
    </defs>
    <g clip-path="url(#p533d054143)">
     <use style="fill:#3366ff;opacity:0.3;stroke:#3366ff;stroke-width:0.5;" x="86.2947566482" xlink:href="#mf114e4bb02" y="63.3609761021"/>
     <use style="fill:#3366ff;opacity:0.3;stroke:#3366ff;stroke-width:0.5;" x="173.457461788" xlink:href="#mf114e4bb02" y="176.707521563"/>
     <use style="fill:#3366ff;opacity:0.3;stroke:#3366ff;stroke-width:0.5;" x="260.620166927" xlink:href="#mf114e4bb02" y="259.435390756"/>
     <use style="fill:#3366ff;opacity:0.3;stroke:#3366ff;stroke-width:0.5;" x="347.782872067" xlink:href="#mf114e4bb02" y="322.759158168"/>
     <use style="fill:#3366ff;opacity:0.3;stroke:#3366ff;stroke-width:0.5;" x="434.945577206" xlink:href="#mf114e4bb02" y="374.896460716"/>
     <use style="fill:#3366ff;opacity:0.3;stroke:#3366ff;stroke-width:0.5;" x="522.108282346" xlink:href="#mf114e4bb02" y="402.201507443"/>
     <use style="fill:#3366ff;opacity:0.3;stroke:#3366ff;stroke-width:0.5;" x="609.270987485" xlink:href="#mf114e4bb02" y="449.824869289"/>
    </g>
   </g>
   <g id="line2d_65">
    <g clip-path="url(#p533d054143)">
     <use style="fill:#3366ff;opacity:0.3;stroke:#3366ff;stroke-width:0.5;" x="86.2947566482" xlink:href="#mf114e4bb02" y="61.7354252369"/>
     <use style="fill:#3366ff;opacity:0.3;stroke:#3366ff;stroke-width:0.5;" x="173.457461788" xlink:href="#mf114e4bb02" y="175.396183513"/>
     <use style="fill:#3366ff;opacity:0.3;stroke:#3366ff;stroke-width:0.5;" x="260.620166927" xlink:href="#mf114e4bb02" y="258.175620065"/>
     <use style="fill:#3366ff;opacity:0.3;stroke:#3366ff;stroke-width:0.5;" x="347.782872067" xlink:href="#mf114e4bb02" y="321.711905143"/>
     <use style="fill:#3366ff;opacity:0.3;stroke:#3366ff;stroke-width:0.5;" x="434.945577206" xlink:href="#mf114e4bb02" y="373.870311817"/>
     <use style="fill:#3366ff;opacity:0.3;stroke:#3366ff;stroke-width:0.5;" x="522.108282346" xlink:href="#mf114e4bb02" y="401.409574641"/>
     <use style="fill:#3366ff;opacity:0.3;stroke:#3366ff;stroke-width:0.5;" x="609.270987485" xlink:href="#mf114e4bb02" y="449.07158968"/>
    </g>
   </g>
   <g id="line2d_66">
    <defs>
     <path d="M -4 0 
L 4 0 
M 0 4 
L 0 -4 
" id="me50b362473" style="stroke:#3366ff;stroke-width:0.5;"/>
    </defs>
    <g clip-path="url(#p533d054143)">
     <use style="fill:#3366ff;opacity:0.3;stroke:#3366ff;stroke-width:0.5;" x="86.2947566482" xlink:href="#me50b362473" y="62.5482006695"/>
     <use style="fill:#3366ff;opacity:0.3;stroke:#3366ff;stroke-width:0.5;" x="173.457461788" xlink:href="#me50b362473" y="176.051852538"/>
     <use style="fill:#3366ff;opacity:0.3;stroke:#3366ff;stroke-width:0.5;" x="260.620166927" xlink:href="#me50b362473" y="258.805505411"/>
     <use style="fill:#3366ff;opacity:0.3;stroke:#3366ff;stroke-width:0.5;" x="347.782872067" xlink:href="#me50b362473" y="322.235531656"/>
     <use style="fill:#3366ff;opacity:0.3;stroke:#3366ff;stroke-width:0.5;" x="434.945577206" xlink:href="#me50b362473" y="374.383386267"/>
     <use style="fill:#3366ff;opacity:0.3;stroke:#3366ff;stroke-width:0.5;" x="522.108282346" xlink:href="#me50b362473" y="401.805541042"/>
     <use style="fill:#3366ff;opacity:0.3;stroke:#3366ff;stroke-width:0.5;" x="609.270987485" xlink:href="#me50b362473" y="449.448229485"/>
    </g>
   </g>
   <g id="line2d_67">
    <path clip-path="url(#p533d054143)" d="M 86.294757 142.846758 
L 173.457462 223.566891 
L 260.620167 277.732277 
L 347.782872 322.235532 
L 434.945577 361.614022 
L 522.108282 390.62372 
L 609.270987 412.881949 
" style="fill:none;opacity:0.3;stroke:#109618;stroke-linecap:square;stroke-width:2.0;"/>
   </g>
   <g id="line2d_68">
    <defs>
     <path d="M 3 0 
L -3 -0 
" id="m63ec9c8f02" style="stroke:#ff9900;stroke-width:0.5;"/>
    </defs>
    <g clip-path="url(#p533d054143)">
     <use style="fill:#ff9900;opacity:0.3;stroke:#ff9900;stroke-width:0.5;" x="86.2947566482" xlink:href="#m63ec9c8f02" y="145.006039268"/>
     <use style="fill:#ff9900;opacity:0.3;stroke:#ff9900;stroke-width:0.5;" x="173.457461788" xlink:href="#m63ec9c8f02" y="225.38010566"/>
     <use style="fill:#ff9900;opacity:0.3;stroke:#ff9900;stroke-width:0.5;" x="260.620166927" xlink:href="#m63ec9c8f02" y="279.397305458"/>
     <use style="fill:#ff9900;opacity:0.3;stroke:#ff9900;stroke-width:0.5;" x="347.782872067" xlink:href="#m63ec9c8f02" y="323.718679476"/>
     <use style="fill:#ff9900;opacity:0.3;stroke:#ff9900;stroke-width:0.5;" x="434.945577206" xlink:href="#m63ec9c8f02" y="362.998021481"/>
     <use style="fill:#ff9900;opacity:0.3;stroke:#ff9900;stroke-width:0.5;" x="522.108282346" xlink:href="#m63ec9c8f02" y="391.802363545"/>
     <use style="fill:#ff9900;opacity:0.3;stroke:#ff9900;stroke-width:0.5;" x="609.270987485" xlink:href="#m63ec9c8f02" y="413.991814642"/>
    </g>
   </g>
   <g id="line2d_69">
    <g clip-path="url(#p533d054143)">
     <use style="fill:#ff9900;opacity:0.3;stroke:#ff9900;stroke-width:0.5;" x="86.2947566482" xlink:href="#m63ec9c8f02" y="140.687476724"/>
     <use style="fill:#ff9900;opacity:0.3;stroke:#ff9900;stroke-width:0.5;" x="173.457461788" xlink:href="#m63ec9c8f02" y="221.753676282"/>
     <use style="fill:#ff9900;opacity:0.3;stroke:#ff9900;stroke-width:0.5;" x="260.620166927" xlink:href="#m63ec9c8f02" y="276.067248599"/>
     <use style="fill:#ff9900;opacity:0.3;stroke:#ff9900;stroke-width:0.5;" x="347.782872067" xlink:href="#m63ec9c8f02" y="320.752383835"/>
     <use style="fill:#ff9900;opacity:0.3;stroke:#ff9900;stroke-width:0.5;" x="434.945577206" xlink:href="#m63ec9c8f02" y="360.230021826"/>
     <use style="fill:#ff9900;opacity:0.3;stroke:#ff9900;stroke-width:0.5;" x="522.108282346" xlink:href="#m63ec9c8f02" y="389.445076808"/>
     <use style="fill:#ff9900;opacity:0.3;stroke:#ff9900;stroke-width:0.5;" x="609.270987485" xlink:href="#m63ec9c8f02" y="411.772083479"/>
    </g>
   </g>
   <g id="line2d_70">
    <defs>
     <path d="M -4 0 
L 4 0 
M 0 4 
L 0 -4 
" id="m37c86389ea" style="stroke:#ff9900;stroke-width:0.5;"/>
    </defs>
    <g clip-path="url(#p533d054143)">
     <use style="fill:#ff9900;opacity:0.3;stroke:#ff9900;stroke-width:0.5;" x="86.2947566482" xlink:href="#m37c86389ea" y="142.846757996"/>
     <use style="fill:#ff9900;opacity:0.3;stroke:#ff9900;stroke-width:0.5;" x="173.457461788" xlink:href="#m37c86389ea" y="223.566890971"/>
     <use style="fill:#ff9900;opacity:0.3;stroke:#ff9900;stroke-width:0.5;" x="260.620166927" xlink:href="#m37c86389ea" y="277.732277029"/>
     <use style="fill:#ff9900;opacity:0.3;stroke:#ff9900;stroke-width:0.5;" x="347.782872067" xlink:href="#m37c86389ea" y="322.235531656"/>
     <use style="fill:#ff9900;opacity:0.3;stroke:#ff9900;stroke-width:0.5;" x="434.945577206" xlink:href="#m37c86389ea" y="361.614021654"/>
     <use style="fill:#ff9900;opacity:0.3;stroke:#ff9900;stroke-width:0.5;" x="522.108282346" xlink:href="#m37c86389ea" y="390.623720176"/>
     <use style="fill:#ff9900;opacity:0.3;stroke:#ff9900;stroke-width:0.5;" x="609.270987485" xlink:href="#m37c86389ea" y="412.88194906"/>
    </g>
   </g>
   <g id="patch_3">
    <path d="M 73.319368 7.2 
L 622.246376 7.2 
" style="fill:none;stroke:#000000;stroke-linecap:square;stroke-linejoin:miter;stroke-width:2.0;"/>
   </g>
   <g id="patch_4">
    <path d="M 622.246376 460.615625 
L 622.246376 7.2 
" style="fill:none;stroke:#000000;stroke-linecap:square;stroke-linejoin:miter;stroke-width:2.0;"/>
   </g>
   <g id="patch_5">
    <path d="M 73.319368 460.615625 
L 622.246376 460.615625 
" style="fill:none;stroke:#000000;stroke-linecap:square;stroke-linejoin:miter;stroke-width:2.0;"/>
   </g>
   <g id="patch_6">
    <path d="M 73.319368 460.615625 
L 73.319368 7.2 
" style="fill:none;stroke:#000000;stroke-linecap:square;stroke-linejoin:miter;stroke-width:2.0;"/>
   </g>
   <g id="legend_1">
    <g id="line2d_71">
     <path d="M 449.727145 42.227534 
L 476.927145 42.227534 
" style="fill:none;opacity:0.3;stroke:#ee3311;stroke-linecap:square;stroke-width:2.0;"/>
    </g>
    <g id="line2d_72"/>
    <g id="text_18">
     <!-- $W^+ W^- b \bar{b}$ 350 -->
     <defs>
      <path d="M 109 60.328125 
C 110.203125 62.203125 111.40625 64 117.703125 64 
C 118.90625 64 120.703125 64 120.703125 66.953125 
C 120.703125 67.859375 119.90625 68.78125 118.90625 68.78125 
C 116.203125 68.78125 113.203125 68.484375 110.40625 68.484375 
C 106.59375 68.484375 102.59375 68.78125 98.90625 68.78125 
C 98.09375 68.78125 96.203125 68.78125 96.203125 65.828125 
C 96.203125 64 98 64 98.703125 64 
C 99.09375 64 103.09375 64 105.703125 62.90625 
L 76.796875 17.65625 
L 70.796875 63.59375 
C 72.703125 64 75.796875 64 77.296875 64 
C 79.40625 64 81 64 81 66.765625 
C 81 66.859375 81 68.484375 78.90625 68.484375 
C 75.59375 68.484375 67.5 68.484375 64.203125 68.484375 
C 62.09375 68.484375 59.90625 68.484375 57.796875 68.484375 
C 54.90625 68.484375 51.296875 68.484375 51.09375 68.484375 
C 50.40625 68.484375 48.40625 68.484375 48.40625 65.71875 
C 48.40625 64 50.09375 64 51.703125 64 
C 53.203125 64 55.203125 64 56.5 63.890625 
L 57.796875 53.96875 
C 57.796875 53.671875 57.796875 53.46875 57 52.390625 
L 34.90625 17.65625 
L 28.90625 63.59375 
C 30.796875 64 33.90625 64 35.40625 64 
C 37.703125 64 37.796875 64.109375 38.296875 64.5625 
C 38.90625 65.046875 39.09375 66.671875 39.09375 66.765625 
C 39.09375 66.859375 39.09375 68.484375 37 68.484375 
C 33.703125 68.484375 25.5 68.484375 22.203125 68.484375 
C 20.09375 68.484375 17.90625 68.484375 15.796875 68.484375 
C 13.09375 68.484375 9.296875 68.484375 9.203125 68.484375 
C 8.40625 68.484375 6.5 68.484375 6.5 65.71875 
C 6.5 64 8.09375 64 9.796875 64 
C 11.296875 64 13.296875 64 14.59375 63.890625 
L 22.703125 1.96875 
C 23 -0.015625 23.203125 -1 25.59375 -1 
C 27.703125 -1 28.59375 -0.3125 29.796875 1.5625 
L 58.703125 47.125 
L 64.59375 1.96875 
C 64.90625 -0.3125 65.203125 -1 67.59375 -1 
C 69.796875 -1 70.59375 -0.203125 71.703125 1.5625 
z
" id="CMMIB10-87"/>
      <path d="M 28.09375 65.53125 
C 28.5 66.90625 28.5 67.109375 28.5 67.203125 
C 28.5 68.5 27.40625 69 26.296875 69 
C 25.90625 69 25.796875 69 25.59375 69 
L 12.703125 69 
C 11.296875 68.5 9.5 68.5 9.5 65.71875 
C 9.5 63.921875 11.40625 63.921875 12.09375 63.921875 
C 13.203125 63.921875 15 63.921875 16.296875 63.71875 
C 15.5 60.3125 14.5 56 13.5 52.1875 
L 6.59375 24.484375 
C 5.203125 18.875 5.203125 17.65625 5.203125 15.359375 
C 5.203125 2.515625 14.703125 -1 22.203125 -1 
C 40.296875 -1 50.59375 15.3125 50.59375 28.5 
C 50.59375 40.796875 41.40625 45 33.09375 45 
C 28.296875 45 24.296875 43.109375 22.203125 41.8125 
z
M 22.40625 2.578125 
C 18.5 2.578125 15.203125 4.6875 15.203125 10.890625 
C 15.203125 14.09375 16.203125 17.796875 16.90625 20.890625 
C 17.90625 24.6875 19.59375 31.609375 20.296875 34.609375 
C 20.796875 36.296875 26.5 41.40625 32.59375 41.40625 
C 38.796875 41.40625 39.296875 36 39.296875 33.796875 
C 39.296875 28.609375 35.90625 16.296875 34.296875 12.390625 
C 30.90625 4.296875 25.296875 2.578125 22.40625 2.578125 
" id="CMMIB10-98"/>
      <path d="M 46.5 22 
L 77.203125 22 
C 78.5 22 81.203125 22 81.203125 24.6875 
C 81.203125 27.46875 78.59375 27.46875 77.203125 27.46875 
L 46.5 27.46875 
L 46.5 58.015625 
C 46.5 59.3125 46.5 62 43.796875 62 
C 41 62 41 59.40625 41 58.015625 
L 41 27.46875 
L 10.203125 27.46875 
C 8.796875 27.46875 6.203125 27.46875 6.203125 24.6875 
C 6.203125 22 8.90625 22 10.203125 22 
L 41 22 
L 41 -8.53125 
C 41 -9.8125 41 -12.5 43.703125 -12.5 
C 46.5 -12.5 46.5 -9.921875 46.5 -8.53125 
z
" id="CMBX12-43"/>
      <path d="M 28.40625 71 
C 14.40625 71 4.203125 55.6875 4.203125 34.75 
C 4.203125 14.125 14.09375 -1 27.59375 -1 
C 41.59375 -1 51.40625 13.625 51.40625 34.4375 
C 51.40625 45.0625 49.203125 53.875 45 60.78125 
C 41.09375 67.09375 34.703125 71 28.40625 71 
M 27.703125 66.703125 
C 31 66.703125 34.203125 64.5 36.59375 60.5 
C 39.296875 55.875 40.203125 49.96875 40.203125 36.25 
C 40.203125 22.21875 39.5 15.625 37.5 11.203125 
C 35.203125 6.296875 31.59375 3.296875 27.796875 3.296875 
C 24.5 3.296875 21.296875 5.5 18.90625 9.5 
C 16.09375 14.21875 15.296875 20.53125 15.296875 36.859375 
C 15.296875 48.484375 16 54.375 18 58.6875 
C 20.296875 63.796875 23.90625 66.703125 27.703125 66.703125 
" id="Century_Schoolbook_L_Roman-48"/>
      <path d="M 48.296875 55 
L 48.296875 59.78125 
L 7.796875 59.78125 
L 7.796875 55 
z
" id="CMBX12-22"/>
      <path d="M 34.59375 37.359375 
C 36 37.859375 36.203125 37.859375 36.90625 38.15625 
C 43.90625 41.0625 47.90625 46.671875 47.90625 53.765625 
C 47.90625 64.1875 39.90625 71 27.5 71 
C 15.796875 71 6.90625 63.96875 6.90625 54.71875 
C 6.90625 50.546875 9.703125 47.59375 13.5 47.59375 
C 17 47.59375 19.40625 50.046875 19.40625 53.71875 
C 19.40625 55.875 18.59375 57.296875 16.296875 58.9375 
C 15.296875 59.640625 15 60.15625 15 60.78125 
C 15 63.640625 20.90625 66.703125 26.5 66.703125 
C 33.703125 66.703125 37.5 62.125 37.5 53.46875 
C 37.5 43.984375 33.703125 39 26.5 39 
C 25.59375 39 24 39 22.5 39 
C 21.703125 39 20.90625 39 20.296875 39 
C 18.203125 39 17.09375 38.125 17.09375 36.40625 
C 17.09375 34.78125 18.203125 34.015625 20.203125 34.015625 
C 20.5 34.015625 21.296875 34.015625 22.59375 34.015625 
C 26.40625 34.015625 26.5 34.015625 27.296875 34.015625 
C 34.703125 34.015625 38.703125 28.828125 38.703125 19.140625 
C 38.703125 9.0625 33.59375 3.296875 24.703125 3.296875 
C 18.40625 3.296875 11.59375 6.640625 11.59375 9.6875 
C 11.59375 10.59375 11.796875 10.765625 13.796875 11.875 
C 16.59375 13.53125 17.703125 15.21875 17.703125 17.65625 
C 17.703125 21.203125 15 23.875 11.296875 23.875 
C 7.09375 23.875 4.203125 20.328125 4.203125 15.1875 
C 4.203125 5.609375 13.09375 -1 25.90625 -1 
C 40.296875 -1 49.796875 7.015625 49.796875 19.328125 
C 49.796875 28.734375 44.90625 34.4375 34.59375 37.359375 
" id="Century_Schoolbook_L_Roman-51"/>
      <path d="M 16.40625 59.703125 
C 21.796875 58.40625 24.59375 58 28.5 58 
C 37 58 43.203125 61 46.5 66.484375 
C 47.59375 68.390625 48 69.28125 48 70.078125 
C 48 70.6875 47.703125 70.984375 47.203125 70.984375 
C 46.90625 70.984375 46.40625 70.875 45.90625 70.578125 
C 41 68.484375 38.296875 67.984375 32.59375 67.984375 
C 26.203125 67.984375 22.5 68.484375 12 70.984375 
C 11.59375 62.625 10.703125 51.984375 9.296875 39.65625 
C 7.203125 37.46875 6.5 36.171875 6.5 34.578125 
C 6.5 32.59375 7.796875 31.203125 9.703125 31.203125 
C 12.203125 31.203125 13.796875 33.328125 14.203125 37.359375 
C 17.703125 39.890625 21 41 25 41 
C 33.90625 41 39.296875 34.03125 39.296875 22.5 
C 39.296875 15.734375 37.59375 9.953125 34.59375 6.828125 
C 32.59375 4.703125 28.5 3.296875 24.40625 3.296875 
C 18.40625 3.296875 12.203125 6.421875 12.203125 9.5625 
C 12.203125 10.28125 12.796875 11.078125 14 11.78125 
C 17.09375 13.703125 18 15.03125 18 17.75 
C 18 21.296875 15.296875 24.015625 11.703125 24.015625 
C 7.703125 24.015625 4.5 20.28125 4.5 15.546875 
C 4.5 10.5 7.40625 5.453125 11.90625 2.328125 
C 15.296875 0.109375 19.40625 -1 24.59375 -1 
C 40.296875 -1 50.203125 8.28125 50.203125 23.109375 
C 50.203125 36.828125 41.09375 46 27.59375 46 
C 23.40625 46 20.203125 45.296875 14.703125 43 
z
" id="Century_Schoolbook_L_Roman-53"/>
      <path d="M 75.203125 22 
C 76.703125 22 79.703125 22 79.703125 25 
C 79.703125 28.09375 76.796875 28.09375 75.203125 28.09375 
L 14.09375 28.09375 
C 12.59375 28.09375 9.59375 28.09375 9.59375 25.09375 
C 9.59375 22 12.5 22 14.09375 22 
z
" id="CMBSY10-0"/>
     </defs>
     <g transform="translate(484.927145227 47.8275339547)scale(0.16 -0.16)">
      <use transform="scale(0.996264009963)" xlink:href="#CMMIB10-87"/>
      <use transform="translate(124.809187228 36.1536389419)scale(0.697381766617)" xlink:href="#CMBX12-43"/>
      <use transform="translate(186.328216211 0.0)scale(0.996264009963)" xlink:href="#CMMIB10-87"/>
      <use transform="translate(311.137403438 36.1536389419)scale(0.697381766617)" xlink:href="#CMBSY10-0"/>
      <use transform="translate(374.012127374 0.0)scale(0.996264009963)" xlink:href="#CMMIB10-98"/>
      <use transform="translate(423.824841415 24.9066914598)scale(0.996264009963)" xlink:href="#CMBX12-22"/>
      <use transform="translate(425.900553588 0.0)scale(0.996264009963)" xlink:href="#CMMIB10-98"/>
      <use transform="translate(505.484149406 0.0)scale(0.996264009963)" xlink:href="#Century_Schoolbook_L_Roman-51"/>
      <use transform="translate(560.875826369 0.0)scale(0.996264009963)" xlink:href="#Century_Schoolbook_L_Roman-53"/>
      <use transform="translate(616.267503332 0.0)scale(0.996264009963)" xlink:href="#Century_Schoolbook_L_Roman-48"/>
     </g>
    </g>
    <g id="line2d_73">
     <path d="M 449.727145 60.283658 
L 476.927145 60.283658 
" style="fill:none;opacity:0.3;stroke:#109618;stroke-linecap:square;stroke-width:2.0;"/>
    </g>
    <g id="line2d_74"/>
    <g id="text_19">
     <!-- $W^+ W^- b \bar{b} 800$ -->
     <g transform="translate(484.927145227 65.8836582056)scale(0.16 -0.16)">
      <use transform="scale(0.996264009963)" xlink:href="#CMMIB10-87"/>
      <use transform="translate(124.809187228 36.1536389419)scale(0.697381766617)" xlink:href="#CMBX12-43"/>
      <use transform="translate(186.328216211 0.0)scale(0.996264009963)" xlink:href="#CMMIB10-87"/>
      <use transform="translate(311.137403438 36.1536389419)scale(0.697381766617)" xlink:href="#CMBSY10-0"/>
      <use transform="translate(374.012127374 0.0)scale(0.996264009963)" xlink:href="#CMMIB10-98"/>
      <use transform="translate(423.824841415 24.9066914598)scale(0.996264009963)" xlink:href="#CMBX12-22"/>
      <use transform="translate(425.900553588 0.0)scale(0.996264009963)" xlink:href="#CMMIB10-98"/>
      <use transform="translate(477.788979802 0.0)scale(0.996264009963)" xlink:href="#CMBX12-56"/>
      <use transform="translate(533.828830363 0.0)scale(0.996264009963)" xlink:href="#CMBX12-48"/>
      <use transform="translate(589.868680923 0.0)scale(0.996264009963)" xlink:href="#CMBX12-48"/>
     </g>
    </g>
    <g id="LineCollection_3">
     <path d="M 463.327145 86.339782 
L 463.327145 70.339782 
" style="fill:none;stroke:#3366ff;stroke-opacity:0.3;stroke-width:2.0;"/>
    </g>
    <g id="line2d_75">
     <g>
      <use style="fill:#3366ff;opacity:0.3;stroke:#3366ff;stroke-width:0.5;" x="463.327145227" xlink:href="#mf114e4bb02" y="86.3397824564"/>
     </g>
    </g>
    <g id="line2d_76">
     <g>
      <use style="fill:#3366ff;opacity:0.3;stroke:#3366ff;stroke-width:0.5;" x="463.327145227" xlink:href="#mf114e4bb02" y="70.3397824564"/>
     </g>
    </g>
    <g id="line2d_77"/>
    <g id="line2d_78">
     <g>
      <use style="fill:#3366ff;opacity:0.3;stroke:#3366ff;stroke-width:0.5;" x="463.327145227" xlink:href="#me50b362473" y="78.3397824564"/>
     </g>
    </g>
    <g id="text_20">
     <!-- $W^+ W^- b \bar{b} 350$ -->
     <g transform="translate(484.927145227 83.9397824564)scale(0.16 -0.16)">
      <use transform="scale(0.996264009963)" xlink:href="#CMMIB10-87"/>
      <use transform="translate(124.809187228 36.1536389419)scale(0.697381766617)" xlink:href="#CMBX12-43"/>
      <use transform="translate(186.328216211 0.0)scale(0.996264009963)" xlink:href="#CMMIB10-87"/>
      <use transform="translate(311.137403438 36.1536389419)scale(0.697381766617)" xlink:href="#CMBSY10-0"/>
      <use transform="translate(374.012127374 0.0)scale(0.996264009963)" xlink:href="#CMMIB10-98"/>
      <use transform="translate(423.824841415 24.9066914598)scale(0.996264009963)" xlink:href="#CMBX12-22"/>
      <use transform="translate(425.900553588 0.0)scale(0.996264009963)" xlink:href="#CMMIB10-98"/>
      <use transform="translate(477.788979802 0.0)scale(0.996264009963)" xlink:href="#CMBX12-51"/>
      <use transform="translate(533.828830363 0.0)scale(0.996264009963)" xlink:href="#CMBX12-53"/>
      <use transform="translate(589.868680923 0.0)scale(0.996264009963)" xlink:href="#CMBX12-48"/>
     </g>
    </g>
    <g id="LineCollection_4">
     <path d="M 463.327145 104.395907 
L 463.327145 88.395907 
" style="fill:none;stroke:#ff9900;stroke-opacity:0.3;stroke-width:2.0;"/>
    </g>
    <g id="line2d_79">
     <g>
      <use style="fill:#ff9900;opacity:0.3;stroke:#ff9900;stroke-width:0.5;" x="463.327145227" xlink:href="#m63ec9c8f02" y="104.395906707"/>
     </g>
    </g>
    <g id="line2d_80">
     <g>
      <use style="fill:#ff9900;opacity:0.3;stroke:#ff9900;stroke-width:0.5;" x="463.327145227" xlink:href="#m63ec9c8f02" y="88.3959067073"/>
     </g>
    </g>
    <g id="line2d_81"/>
    <g id="line2d_82">
     <g>
      <use style="fill:#ff9900;opacity:0.3;stroke:#ff9900;stroke-width:0.5;" x="463.327145227" xlink:href="#m37c86389ea" y="96.3959067073"/>
     </g>
    </g>
    <g id="text_21">
     <!-- $W^+ W^- b \bar{b} 800$ -->
     <g transform="translate(484.927145227 101.995906707)scale(0.16 -0.16)">
      <use transform="scale(0.996264009963)" xlink:href="#CMMIB10-87"/>
      <use transform="translate(124.809187228 36.1536389419)scale(0.697381766617)" xlink:href="#CMBX12-43"/>
      <use transform="translate(186.328216211 0.0)scale(0.996264009963)" xlink:href="#CMMIB10-87"/>
      <use transform="translate(311.137403438 36.1536389419)scale(0.697381766617)" xlink:href="#CMBSY10-0"/>
      <use transform="translate(374.012127374 0.0)scale(0.996264009963)" xlink:href="#CMMIB10-98"/>
      <use transform="translate(423.824841415 24.9066914598)scale(0.996264009963)" xlink:href="#CMBX12-22"/>
      <use transform="translate(425.900553588 0.0)scale(0.996264009963)" xlink:href="#CMMIB10-98"/>
      <use transform="translate(477.788979802 0.0)scale(0.996264009963)" xlink:href="#CMBX12-56"/>
      <use transform="translate(533.828830363 0.0)scale(0.996264009963)" xlink:href="#CMBX12-48"/>
      <use transform="translate(589.868680923 0.0)scale(0.996264009963)" xlink:href="#CMBX12-48"/>
     </g>
    </g>
   </g>
  </g>
 </g>
 <defs>
  <clipPath id="p533d054143">
   <rect height="453.415625" width="548.927008046" x="73.3193680437" y="7.2"/>
  </clipPath>
 </defs>
</svg>
