<?xml version="1.0" encoding="utf-8" standalone="no"?>
<!DOCTYPE svg PUBLIC "-//W3C//DTD SVG 1.1//EN"
  "http://www.w3.org/Graphics/SVG/1.1/DTD/svg11.dtd">
<!-- Created with matplotlib (http://matplotlib.org/) -->
<svg height="541pt" version="1.1" viewBox="0 0 634 541" width="634pt" xmlns="http://www.w3.org/2000/svg" xmlns:xlink="http://www.w3.org/1999/xlink">
 <defs>
  <style type="text/css">
*{stroke-linecap:butt;stroke-linejoin:round;stroke-miterlimit:100000;}
  </style>
 </defs>
 <g id="figure_1">
  <g id="patch_1">
   <path d="M 0 541 
L 634.538365 541 
L 634.538365 0 
L 0 0 
z
" style="fill:#ffffff;"/>
  </g>
  <g id="axes_1">
   <g id="patch_2">
    <path d="M 72.78086 486.116533 
L 627.338365 486.116533 
L 627.338365 31.4 
L 72.78086 31.4 
z
" style="fill:#ffffff;"/>
   </g>
   <g id="matplotlib.axis_1">
    <g id="xtick_1">
     <g id="line2d_1">
      <defs>
       <path d="M 0 0 
L 0 -10 
" id="m69f3af2f3d" style="stroke:#000000;stroke-width:1.5;"/>
      </defs>
      <g>
       <use style="stroke:#000000;stroke-width:1.5;" x="97.9880194233" xlink:href="#m69f3af2f3d" y="486.116532729"/>
      </g>
     </g>
     <g id="line2d_2">
      <defs>
       <path d="M 0 0 
L 0 10 
" id="m9652a4b932" style="stroke:#000000;stroke-width:1.5;"/>
      </defs>
      <g>
       <use style="stroke:#000000;stroke-width:1.5;" x="97.9880194233" xlink:href="#m9652a4b932" y="31.4"/>
      </g>
     </g>
     <g id="text_1">
      <!-- $1.00$ -->
      <defs>
       <path d="M 34.59375 62.109375 
C 34.59375 65 34.40625 65 31.203125 65 
C 23.796875 59 12.703125 59 10.5 59 
L 8.59375 59 
L 8.59375 54.734375 
L 10.5 54.734375 
C 14 54.734375 19.296875 55.328125 23.296875 56.625 
L 23.296875 4.171875 
L 9.40625 4.171875 
L 9.40625 0 
C 13.59375 0 24.09375 0 28.796875 0 
C 33.5 0 44.09375 0 48.296875 0 
L 48.296875 4.171875 
L 34.59375 4.171875 
z
" id="CMBX12-49"/>
       <path d="M 23.703125 7.765625 
C 23.703125 12.046875 20.203125 15.53125 15.90625 15.53125 
C 11.59375 15.53125 8.09375 12.046875 8.09375 7.765625 
C 8.09375 3.484375 11.59375 0 15.90625 0 
C 20.203125 0 23.703125 3.484375 23.703125 7.765625 
" id="CMMIB10-58"/>
       <path d="M 51.703125 31.84375 
C 51.703125 41.375 51.703125 65.28125 28.09375 65.28125 
C 4.40625 65.28125 4.40625 41.46875 4.40625 31.84375 
C 4.40625 22.3125 4.40625 -1 28 -1 
C 51.59375 -1 51.703125 22.015625 51.703125 31.84375 
M 28.09375 2.28125 
C 24.90625 2.28125 22.5 3.5625 20.5 5.65625 
C 18 8.140625 16.40625 9.703125 16.40625 33.03125 
C 16.40625 39.984375 16.40625 46.3125 17.203125 51.484375 
C 18.59375 61.3125 25.796875 62 28 62 
C 31.203125 62 37.40625 60.515625 38.796875 52.1875 
C 39.703125 47.109375 39.703125 39.078125 39.703125 33.03125 
C 39.703125 9.609375 38.203125 8.234375 35.203125 5.25 
C 33.203125 3.265625 30.5 2.28125 28.09375 2.28125 
" id="CMBX12-48"/>
      </defs>
      <g transform="translate(81.9924607761 507.944066684)scale(0.16 -0.16)">
       <use transform="scale(0.996264009963)" xlink:href="#CMBX12-49"/>
       <use transform="translate(56.0398505604 0.0)scale(0.996264009963)" xlink:href="#CMMIB10-58"/>
       <use transform="translate(87.86478197 0.0)scale(0.996264009963)" xlink:href="#CMBX12-48"/>
       <use transform="translate(143.90463253 0.0)scale(0.996264009963)" xlink:href="#CMBX12-48"/>
      </g>
     </g>
    </g>
    <g id="xtick_2">
     <g id="line2d_3">
      <g>
       <use style="stroke:#000000;stroke-width:1.5;" x="198.816656698" xlink:href="#m69f3af2f3d" y="486.116532729"/>
      </g>
     </g>
     <g id="line2d_4">
      <g>
       <use style="stroke:#000000;stroke-width:1.5;" x="198.816656698" xlink:href="#m9652a4b932" y="31.4"/>
      </g>
     </g>
     <g id="text_2">
      <!-- $2.00$ -->
      <defs>
       <path d="M 50.5 21.375 
L 46.296875 21.375 
C 46 19.28125 45.296875 13.40625 43.796875 12.421875 
C 43 11.71875 35.203125 11.71875 33.703125 11.71875 
L 18.203125 11.71875 
C 22 14.90625 31.09375 22.46875 32.59375 23.578125 
C 43.703125 31.84375 50.5 36.90625 50.5 46.46875 
C 50.5 58.203125 39.796875 65.28125 26.59375 65.28125 
C 15.296875 65.28125 5.59375 58.90625 5.59375 49.453125 
C 5.59375 44.171875 9.90625 42.6875 12.203125 42.6875 
C 15.296875 42.6875 18.90625 44.765625 18.90625 49.359375 
C 18.90625 53.546875 15.796875 55.625 12.703125 56.03125 
C 16.703125 60.609375 22 61 24.09375 61 
C 33.296875 61 37.703125 53.546875 37.703125 46.375 
C 37.703125 38.609375 32.40625 31.453125 28.296875 27.171875 
L 6.59375 4.578125 
C 5.59375 3.671875 5.59375 3.484375 5.59375 1.6875 
L 5.59375 0 
L 47.59375 0 
z
" id="CMBX12-50"/>
      </defs>
      <g transform="translate(182.821098051 507.944066684)scale(0.16 -0.16)">
       <use transform="scale(0.996264009963)" xlink:href="#CMBX12-50"/>
       <use transform="translate(56.0398505604 0.0)scale(0.996264009963)" xlink:href="#CMMIB10-58"/>
       <use transform="translate(87.86478197 0.0)scale(0.996264009963)" xlink:href="#CMBX12-48"/>
       <use transform="translate(143.90463253 0.0)scale(0.996264009963)" xlink:href="#CMBX12-48"/>
      </g>
     </g>
    </g>
    <g id="xtick_3">
     <g id="line2d_5">
      <g>
       <use style="stroke:#000000;stroke-width:1.5;" x="299.645293973" xlink:href="#m69f3af2f3d" y="486.116532729"/>
      </g>
     </g>
     <g id="line2d_6">
      <g>
       <use style="stroke:#000000;stroke-width:1.5;" x="299.645293973" xlink:href="#m9652a4b932" y="31.4"/>
      </g>
     </g>
     <g id="text_3">
      <!-- $3.00$ -->
      <defs>
       <path d="M 26.09375 33 
C 37.296875 33 37.296875 22.71875 37.296875 17.984375 
C 37.296875 13.53125 37.296875 3.0625 26.5 3.0625 
C 24.40625 3.0625 17.796875 3.0625 13 6.625 
C 17.296875 7.515625 18.796875 10.59375 18.796875 13.5625 
C 18.796875 17.625 15.90625 20.5 11.796875 20.5 
C 7.59375 20.5 4.703125 17.625 4.703125 13.46875 
C 4.703125 4.34375 14.703125 -1 27 -1 
C 43.5 -1 51.40625 8.015625 51.40625 17.921875 
C 51.40625 22.796875 48.90625 32.203125 33.40625 34.875 
C 42.203125 37.59375 48.296875 43.8125 48.296875 51.71875 
C 48.296875 59.25 41.09375 65.578125 27.203125 65.578125 
C 16 65.578125 7.796875 59.65625 7.796875 51.53125 
C 7.796875 46.515625 11.703125 44.90625 14.296875 44.90625 
C 17.203125 44.90625 20.703125 46.8125 20.703125 51.4375 
C 20.703125 53.765625 19.703125 57.171875 15 57.875 
C 19.203125 62 26 62 26.59375 62 
C 35.5 62 35.5 55.03125 35.5 52.015625 
C 35.5 48.984375 35.09375 44.328125 31.90625 40.203125 
C 29.296875 36.75 26.703125 36.5625 22.90625 36.5625 
C 21.703125 36.265625 19.703125 36.265625 19.296875 36.078125 
C 18.703125 35.78125 18.703125 35.078125 18.703125 34.6875 
C 18.703125 33 19.296875 33 21.296875 33 
z
" id="CMBX12-51"/>
      </defs>
      <g transform="translate(283.649735325 507.944066684)scale(0.16 -0.16)">
       <use transform="scale(0.996264009963)" xlink:href="#CMBX12-51"/>
       <use transform="translate(56.0398505604 0.0)scale(0.996264009963)" xlink:href="#CMMIB10-58"/>
       <use transform="translate(87.86478197 0.0)scale(0.996264009963)" xlink:href="#CMBX12-48"/>
       <use transform="translate(143.90463253 0.0)scale(0.996264009963)" xlink:href="#CMBX12-48"/>
      </g>
     </g>
    </g>
    <g id="xtick_4">
     <g id="line2d_7">
      <g>
       <use style="stroke:#000000;stroke-width:1.5;" x="400.473931247" xlink:href="#m69f3af2f3d" y="486.116532729"/>
      </g>
     </g>
     <g id="line2d_8">
      <g>
       <use style="stroke:#000000;stroke-width:1.5;" x="400.473931247" xlink:href="#m9652a4b932" y="31.4"/>
      </g>
     </g>
     <g id="text_4">
      <!-- $4.00$ -->
      <defs>
       <path d="M 43.296875 15.71875 
L 53 15.71875 
L 53 20 
L 43.296875 20 
L 43.296875 62.609375 
C 43.296875 65.09375 43.203125 65.5 40.703125 65.5 
C 38.90625 65.5 38.703125 65.5 37.5 64 
L 3.09375 20 
L 3.09375 15.71875 
L 31.5 15.71875 
L 31.5 4.171875 
L 20.59375 4.171875 
L 20.59375 0 
C 23.5 0 33.40625 0 37 0 
C 40.40625 0 50.296875 0 53 -0.09375 
L 53 4.171875 
L 43.296875 4.171875 
z
M 32.40625 51.59375 
L 32.40625 20 
L 7.703125 20 
z
" id="CMBX12-52"/>
      </defs>
      <g transform="translate(384.4783726 507.944066684)scale(0.16 -0.16)">
       <use transform="scale(0.996264009963)" xlink:href="#CMBX12-52"/>
       <use transform="translate(56.0398505604 0.0)scale(0.996264009963)" xlink:href="#CMMIB10-58"/>
       <use transform="translate(87.86478197 0.0)scale(0.996264009963)" xlink:href="#CMBX12-48"/>
       <use transform="translate(143.90463253 0.0)scale(0.996264009963)" xlink:href="#CMBX12-48"/>
      </g>
     </g>
    </g>
    <g id="xtick_5">
     <g id="line2d_9">
      <g>
       <use style="stroke:#000000;stroke-width:1.5;" x="501.302568522" xlink:href="#m69f3af2f3d" y="486.116532729"/>
      </g>
     </g>
     <g id="line2d_10">
      <g>
       <use style="stroke:#000000;stroke-width:1.5;" x="501.302568522" xlink:href="#m9652a4b932" y="31.4"/>
      </g>
     </g>
     <g id="text_5">
      <!-- $5.00$ -->
      <defs>
       <path d="M 15.40625 51.796875 
C 18.796875 51 21.5 51 23 51 
C 25.40625 51 31.09375 51 37.796875 55.109375 
C 40.90625 56.984375 46.09375 61.5 46.09375 63.796875 
C 46.09375 64.296875 46.09375 65.5 44.90625 65.5 
C 44.796875 65.5 44.59375 65.5 43.59375 64.984375 
C 39 63.34375 34.09375 62.21875 28.5 62.21875 
C 22.796875 62.21875 18 63.3125 13.296875 65 
C 12.59375 65.203125 12.296875 65.40625 12 65.40625 
C 10.796875 65.40625 10.796875 64.40625 10.796875 62.71875 
L 10.796875 33.796875 
C 10.796875 31.90625 10.796875 30.8125 12.796875 30.8125 
C 13.796875 30.8125 14 30.921875 14.796875 31.90625 
C 16 33.3125 19.59375 37.71875 28.09375 37.71875 
C 37.296875 37.71875 37.296875 28.359375 37.296875 20.5 
C 37.296875 13.3125 37.296875 2.96875 25 2.96875 
C 21.296875 2.96875 15 4.359375 11.59375 10 
C 16.90625 10 18.203125 13.984375 18.203125 16.171875 
C 18.203125 19.75 15.59375 22.421875 11.90625 22.421875 
C 8.90625 22.421875 5.59375 20.640625 5.59375 15.96875 
C 5.59375 7.34375 13.5 -1 25.40625 -1 
C 40.796875 -1 50.5 7.859375 50.5 20.203125 
C 50.5 32.34375 42.203125 41 28.5 41 
C 24.5 41 19.703125 40.203125 15.40625 37.015625 
z
" id="CMBX12-53"/>
      </defs>
      <g transform="translate(485.307009875 507.944066684)scale(0.16 -0.16)">
       <use transform="scale(0.996264009963)" xlink:href="#CMBX12-53"/>
       <use transform="translate(56.0398505604 0.0)scale(0.996264009963)" xlink:href="#CMMIB10-58"/>
       <use transform="translate(87.86478197 0.0)scale(0.996264009963)" xlink:href="#CMBX12-48"/>
       <use transform="translate(143.90463253 0.0)scale(0.996264009963)" xlink:href="#CMBX12-48"/>
      </g>
     </g>
    </g>
    <g id="xtick_6">
     <g id="line2d_11">
      <g>
       <use style="stroke:#000000;stroke-width:1.5;" x="602.131205797" xlink:href="#m69f3af2f3d" y="486.116532729"/>
      </g>
     </g>
     <g id="line2d_12">
      <g>
       <use style="stroke:#000000;stroke-width:1.5;" x="602.131205797" xlink:href="#m9652a4b932" y="31.4"/>
      </g>
     </g>
     <g id="text_6">
      <!-- $6.00$ -->
      <defs>
       <path d="M 17.40625 36.25 
C 17.40625 42.328125 17.703125 48.53125 20.5 53.90625 
C 22.703125 58.109375 27.796875 62 34.296875 62 
C 36.203125 62 39.796875 61.703125 42.203125 59.203125 
C 38.40625 58.8125 36.796875 56.015625 36.796875 53.3125 
C 36.796875 49.703125 39.5 47.40625 42.703125 47.40625 
C 45.296875 47.40625 48.59375 49.109375 48.59375 53.5 
C 48.59375 59.484375 44.59375 65.578125 34.09375 65.578125 
C 21.59375 65.578125 4.703125 57.796875 4.703125 31.796875 
C 4.703125 25.109375 4.703125 -1 28.40625 -1 
C 41.59375 -1 51.40625 6.765625 51.40625 20.703125 
C 51.40625 34.640625 41.703125 42 29.796875 42 
C 27.796875 42 21.40625 42 17.40625 33.546875 
z
M 28.296875 2.96875 
C 21.90625 2.96875 19.40625 8.34375 19 9.140625 
C 17.59375 12.4375 17.59375 20.40625 17.59375 21.296875 
C 17.59375 33.546875 22.90625 38.734375 28.796875 38.734375 
C 38.703125 38.734375 38.703125 30.765625 38.703125 20.796875 
C 38.703125 10.9375 38.703125 2.96875 28.296875 2.96875 
" id="CMBX12-54"/>
      </defs>
      <g transform="translate(586.135647149 507.944066684)scale(0.16 -0.16)">
       <use transform="scale(0.996264009963)" xlink:href="#CMBX12-54"/>
       <use transform="translate(56.0398505604 0.0)scale(0.996264009963)" xlink:href="#CMMIB10-58"/>
       <use transform="translate(87.86478197 0.0)scale(0.996264009963)" xlink:href="#CMBX12-48"/>
       <use transform="translate(143.90463253 0.0)scale(0.996264009963)" xlink:href="#CMBX12-48"/>
      </g>
     </g>
    </g>
    <g id="xtick_7">
     <g id="line2d_13">
      <defs>
       <path d="M 0 0 
L 0 -5 
" id="m9ac492d2b5" style="stroke:#000000;"/>
      </defs>
      <g>
       <use style="stroke:#000000;" x="77.8222919684" xlink:href="#m9ac492d2b5" y="486.116532729"/>
      </g>
     </g>
     <g id="line2d_14">
      <defs>
       <path d="M 0 0 
L 0 5 
" id="m7b13488bb8" style="stroke:#000000;"/>
      </defs>
      <g>
       <use style="stroke:#000000;" x="77.8222919684" xlink:href="#m7b13488bb8" y="31.4"/>
      </g>
     </g>
    </g>
    <g id="xtick_8">
     <g id="line2d_15">
      <g>
       <use style="stroke:#000000;" x="118.153746878" xlink:href="#m9ac492d2b5" y="486.116532729"/>
      </g>
     </g>
     <g id="line2d_16">
      <g>
       <use style="stroke:#000000;" x="118.153746878" xlink:href="#m7b13488bb8" y="31.4"/>
      </g>
     </g>
    </g>
    <g id="xtick_9">
     <g id="line2d_17">
      <g>
       <use style="stroke:#000000;" x="138.319474333" xlink:href="#m9ac492d2b5" y="486.116532729"/>
      </g>
     </g>
     <g id="line2d_18">
      <g>
       <use style="stroke:#000000;" x="138.319474333" xlink:href="#m7b13488bb8" y="31.4"/>
      </g>
     </g>
    </g>
    <g id="xtick_10">
     <g id="line2d_19">
      <g>
       <use style="stroke:#000000;" x="158.485201788" xlink:href="#m9ac492d2b5" y="486.116532729"/>
      </g>
     </g>
     <g id="line2d_20">
      <g>
       <use style="stroke:#000000;" x="158.485201788" xlink:href="#m7b13488bb8" y="31.4"/>
      </g>
     </g>
    </g>
    <g id="xtick_11">
     <g id="line2d_21">
      <g>
       <use style="stroke:#000000;" x="178.650929243" xlink:href="#m9ac492d2b5" y="486.116532729"/>
      </g>
     </g>
     <g id="line2d_22">
      <g>
       <use style="stroke:#000000;" x="178.650929243" xlink:href="#m7b13488bb8" y="31.4"/>
      </g>
     </g>
    </g>
    <g id="xtick_12">
     <g id="line2d_23">
      <g>
       <use style="stroke:#000000;" x="218.982384153" xlink:href="#m9ac492d2b5" y="486.116532729"/>
      </g>
     </g>
     <g id="line2d_24">
      <g>
       <use style="stroke:#000000;" x="218.982384153" xlink:href="#m7b13488bb8" y="31.4"/>
      </g>
     </g>
    </g>
    <g id="xtick_13">
     <g id="line2d_25">
      <g>
       <use style="stroke:#000000;" x="239.148111608" xlink:href="#m9ac492d2b5" y="486.116532729"/>
      </g>
     </g>
     <g id="line2d_26">
      <g>
       <use style="stroke:#000000;" x="239.148111608" xlink:href="#m7b13488bb8" y="31.4"/>
      </g>
     </g>
    </g>
    <g id="xtick_14">
     <g id="line2d_27">
      <g>
       <use style="stroke:#000000;" x="259.313839063" xlink:href="#m9ac492d2b5" y="486.116532729"/>
      </g>
     </g>
     <g id="line2d_28">
      <g>
       <use style="stroke:#000000;" x="259.313839063" xlink:href="#m7b13488bb8" y="31.4"/>
      </g>
     </g>
    </g>
    <g id="xtick_15">
     <g id="line2d_29">
      <g>
       <use style="stroke:#000000;" x="279.479566518" xlink:href="#m9ac492d2b5" y="486.116532729"/>
      </g>
     </g>
     <g id="line2d_30">
      <g>
       <use style="stroke:#000000;" x="279.479566518" xlink:href="#m7b13488bb8" y="31.4"/>
      </g>
     </g>
    </g>
    <g id="xtick_16">
     <g id="line2d_31">
      <g>
       <use style="stroke:#000000;" x="319.811021428" xlink:href="#m9ac492d2b5" y="486.116532729"/>
      </g>
     </g>
     <g id="line2d_32">
      <g>
       <use style="stroke:#000000;" x="319.811021428" xlink:href="#m7b13488bb8" y="31.4"/>
      </g>
     </g>
    </g>
    <g id="xtick_17">
     <g id="line2d_33">
      <g>
       <use style="stroke:#000000;" x="339.976748882" xlink:href="#m9ac492d2b5" y="486.116532729"/>
      </g>
     </g>
     <g id="line2d_34">
      <g>
       <use style="stroke:#000000;" x="339.976748882" xlink:href="#m7b13488bb8" y="31.4"/>
      </g>
     </g>
    </g>
    <g id="xtick_18">
     <g id="line2d_35">
      <g>
       <use style="stroke:#000000;" x="360.142476337" xlink:href="#m9ac492d2b5" y="486.116532729"/>
      </g>
     </g>
     <g id="line2d_36">
      <g>
       <use style="stroke:#000000;" x="360.142476337" xlink:href="#m7b13488bb8" y="31.4"/>
      </g>
     </g>
    </g>
    <g id="xtick_19">
     <g id="line2d_37">
      <g>
       <use style="stroke:#000000;" x="380.308203792" xlink:href="#m9ac492d2b5" y="486.116532729"/>
      </g>
     </g>
     <g id="line2d_38">
      <g>
       <use style="stroke:#000000;" x="380.308203792" xlink:href="#m7b13488bb8" y="31.4"/>
      </g>
     </g>
    </g>
    <g id="xtick_20">
     <g id="line2d_39">
      <g>
       <use style="stroke:#000000;" x="420.639658702" xlink:href="#m9ac492d2b5" y="486.116532729"/>
      </g>
     </g>
     <g id="line2d_40">
      <g>
       <use style="stroke:#000000;" x="420.639658702" xlink:href="#m7b13488bb8" y="31.4"/>
      </g>
     </g>
    </g>
    <g id="xtick_21">
     <g id="line2d_41">
      <g>
       <use style="stroke:#000000;" x="440.805386157" xlink:href="#m9ac492d2b5" y="486.116532729"/>
      </g>
     </g>
     <g id="line2d_42">
      <g>
       <use style="stroke:#000000;" x="440.805386157" xlink:href="#m7b13488bb8" y="31.4"/>
      </g>
     </g>
    </g>
    <g id="xtick_22">
     <g id="line2d_43">
      <g>
       <use style="stroke:#000000;" x="460.971113612" xlink:href="#m9ac492d2b5" y="486.116532729"/>
      </g>
     </g>
     <g id="line2d_44">
      <g>
       <use style="stroke:#000000;" x="460.971113612" xlink:href="#m7b13488bb8" y="31.4"/>
      </g>
     </g>
    </g>
    <g id="xtick_23">
     <g id="line2d_45">
      <g>
       <use style="stroke:#000000;" x="481.136841067" xlink:href="#m9ac492d2b5" y="486.116532729"/>
      </g>
     </g>
     <g id="line2d_46">
      <g>
       <use style="stroke:#000000;" x="481.136841067" xlink:href="#m7b13488bb8" y="31.4"/>
      </g>
     </g>
    </g>
    <g id="xtick_24">
     <g id="line2d_47">
      <g>
       <use style="stroke:#000000;" x="521.468295977" xlink:href="#m9ac492d2b5" y="486.116532729"/>
      </g>
     </g>
     <g id="line2d_48">
      <g>
       <use style="stroke:#000000;" x="521.468295977" xlink:href="#m7b13488bb8" y="31.4"/>
      </g>
     </g>
    </g>
    <g id="xtick_25">
     <g id="line2d_49">
      <g>
       <use style="stroke:#000000;" x="541.634023432" xlink:href="#m9ac492d2b5" y="486.116532729"/>
      </g>
     </g>
     <g id="line2d_50">
      <g>
       <use style="stroke:#000000;" x="541.634023432" xlink:href="#m7b13488bb8" y="31.4"/>
      </g>
     </g>
    </g>
    <g id="xtick_26">
     <g id="line2d_51">
      <g>
       <use style="stroke:#000000;" x="561.799750887" xlink:href="#m9ac492d2b5" y="486.116532729"/>
      </g>
     </g>
     <g id="line2d_52">
      <g>
       <use style="stroke:#000000;" x="561.799750887" xlink:href="#m7b13488bb8" y="31.4"/>
      </g>
     </g>
    </g>
    <g id="xtick_27">
     <g id="line2d_53">
      <g>
       <use style="stroke:#000000;" x="581.965478342" xlink:href="#m9ac492d2b5" y="486.116532729"/>
      </g>
     </g>
     <g id="line2d_54">
      <g>
       <use style="stroke:#000000;" x="581.965478342" xlink:href="#m7b13488bb8" y="31.4"/>
      </g>
     </g>
    </g>
    <g id="xtick_28">
     <g id="line2d_55">
      <g>
       <use style="stroke:#000000;" x="622.296933251" xlink:href="#m9ac492d2b5" y="486.116532729"/>
      </g>
     </g>
     <g id="line2d_56">
      <g>
       <use style="stroke:#000000;" x="622.296933251" xlink:href="#m7b13488bb8" y="31.4"/>
      </g>
     </g>
    </g>
    <g id="text_7">
     <!-- foo $x$ -->
     <defs>
      <path d="M 53.59375 39.90625 
C 50 38.90625 48.203125 35.515625 48.203125 33 
C 48.203125 30.796875 49.90625 28.390625 53.203125 28.390625 
C 56.703125 28.390625 60.40625 31.296875 60.40625 36.1875 
C 60.40625 41.5 55.09375 45 49 45 
C 43.296875 45 39.59375 40.703125 38.296875 38.90625 
C 35.796875 43.109375 30.203125 45 24.5 45 
C 11.90625 45 5.09375 32.6875 5.09375 29.390625 
C 5.09375 28 6.59375 28 7.5 28 
C 8.703125 28 9.40625 28 9.796875 29.296875 
C 12.703125 38.40625 19.90625 41.40625 24 41.40625 
C 27.796875 41.40625 29.59375 39.609375 29.59375 36.40625 
C 29.59375 34.515625 28.203125 29 27.296875 25.40625 
L 23.90625 11.6875 
C 22.40625 5.59375 18.796875 2.578125 15.40625 2.578125 
C 14.90625 2.578125 12.59375 2.578125 10.59375 4.078125 
C 14.203125 5.078125 16 8.484375 16 10.984375 
C 16 13.1875 14.296875 15.59375 11 15.59375 
C 7.5 15.59375 3.796875 12.6875 3.796875 7.796875 
C 3.796875 2.5 9.09375 -1 15.203125 -1 
C 20.90625 -1 24.59375 3.28125 25.90625 5.078125 
C 28.40625 0.890625 34 -1 39.703125 -1 
C 52.296875 -1 59.09375 11.296875 59.09375 14.59375 
C 59.09375 15.984375 57.59375 15.984375 56.703125 15.984375 
C 55.5 15.984375 54.796875 15.984375 54.40625 14.6875 
C 51.5 5.59375 44.296875 2.578125 40.203125 2.578125 
C 36.40625 2.578125 34.59375 4.390625 34.59375 7.59375 
C 34.59375 9.6875 35.90625 14.984375 36.796875 18.6875 
C 37.5 21.296875 39.796875 30.703125 40.296875 32.3125 
C 41.796875 38.3125 45.296875 41.40625 48.796875 41.40625 
C 49.296875 41.40625 51.59375 41.40625 53.59375 39.90625 
" id="CMMIB10-120"/>
      <path d="M 20.09375 46.296875 
L 20.09375 52.140625 
C 20.09375 57.265625 20.40625 60.65625 21.203125 62.71875 
C 22.796875 67.234375 26.296875 70 30.296875 70 
C 32.40625 70 33.703125 69.390625 33.703125 68.25 
C 33.703125 67.921875 33.59375 67.734375 33.09375 66.90625 
C 32.5 65.890625 32.203125 64.75 32.203125 63.625 
C 32.203125 60.546875 34.59375 58.203125 37.703125 58.203125 
C 41 58.203125 43.296875 60.734375 43.296875 64.40625 
C 43.296875 70.328125 38.296875 74 30.203125 74 
C 23.296875 74 18.296875 71.53125 14.703125 66.4375 
C 11.703125 62.140625 10.703125 57.734375 10.703125 49.46875 
L 10.703125 46.296875 
L 1.90625 46.296875 
L 1.90625 42 
L 10.703125 42 
L 10.703125 12.234375 
L 10.703125 8.25 
C 10.703125 4.296875 9.59375 3.59375 3.203125 3.59375 
L 2.796875 3.59375 
L 2.796875 0 
L 29.5 0 
L 29.5 3.59375 
L 27.703125 3.59375 
C 21.203125 3.59375 20.09375 4.296875 20.09375 8.25 
L 20.09375 12.234375 
L 20.09375 42 
L 31.09375 42 
L 31.09375 46.296875 
z
" id="Century_Schoolbook_L_Roman-102"/>
      <path d="M 25.203125 48.28125 
C 13 48.28125 3.40625 37.453125 3.40625 23.546875 
C 3.40625 9.9375 13 -1 25 -1 
C 37 -1 46.59375 9.9375 46.59375 23.640625 
C 46.59375 37.25 37 48.28125 25.203125 48.28125 
M 25.203125 44 
C 32.203125 44 36.09375 36.75 36.09375 23.640625 
C 36.09375 10.453125 32.203125 3.296875 25 3.296875 
C 17.796875 3.296875 13.90625 10.453125 13.90625 23.546875 
C 13.90625 37.046875 17.703125 44 25.203125 44 
" id="Century_Schoolbook_L_Roman-111"/>
     </defs>
     <g transform="translate(328.348921075 530.165694685)scale(0.192 -0.192)">
      <use transform="scale(0.996264009963)" xlink:href="#Century_Schoolbook_L_Roman-102"/>
      <use transform="translate(33.1752297293 0.0)scale(0.996264009963)" xlink:href="#Century_Schoolbook_L_Roman-111"/>
      <use transform="translate(82.9884302275 0.0)scale(0.996264009963)" xlink:href="#Century_Schoolbook_L_Roman-111"/>
      <use transform="translate(160.496800329 0.0)scale(0.996264009963)" xlink:href="#CMMIB10-120"/>
     </g>
    </g>
   </g>
   <g id="matplotlib.axis_2">
    <g id="ytick_1">
     <g id="line2d_57">
      <defs>
       <path d="M 0 0 
L 10 0 
" id="mfefcb219b5" style="stroke:#000000;stroke-width:1.5;"/>
      </defs>
      <g>
       <use style="stroke:#000000;stroke-width:1.5;" x="72.7808601047" xlink:href="#mfefcb219b5" y="465.447599423"/>
      </g>
     </g>
     <g id="line2d_58">
      <defs>
       <path d="M 0 0 
L -10 0 
" id="m6d5dcb9d90" style="stroke:#000000;stroke-width:1.5;"/>
      </defs>
      <g>
       <use style="stroke:#000000;stroke-width:1.5;" x="627.338365115" xlink:href="#m6d5dcb9d90" y="465.447599423"/>
      </g>
     </g>
     <g id="text_8">
      <!-- $1.0$ -->
      <g transform="translate(39.7561188998 469.847071252)scale(0.16 -0.16)">
       <use transform="scale(0.996264009963)" xlink:href="#CMBX12-49"/>
       <use transform="translate(56.0398505604 0.0)scale(0.996264009963)" xlink:href="#CMMIB10-58"/>
       <use transform="translate(87.86478197 0.0)scale(0.996264009963)" xlink:href="#CMBX12-48"/>
      </g>
     </g>
    </g>
    <g id="ytick_2">
     <g id="line2d_59">
      <g>
       <use style="stroke:#000000;stroke-width:1.5;" x="72.7808601047" xlink:href="#mfefcb219b5" y="382.7718662"/>
      </g>
     </g>
     <g id="line2d_60">
      <g>
       <use style="stroke:#000000;stroke-width:1.5;" x="627.338365115" xlink:href="#m6d5dcb9d90" y="382.7718662"/>
      </g>
     </g>
     <g id="text_9">
      <!-- $8.0$ -->
      <defs>
       <path d="M 37.703125 36.921875 
C 42.703125 39.515625 48.296875 43.203125 48.296875 51 
C 48.296875 61.28125 39.09375 65.671875 28.203125 65.671875 
C 14.90625 65.671875 7.796875 58.09375 7.796875 48.40625 
C 7.796875 43.03125 10.5 37.03125 17.90625 33.140625 
C 6.59375 28.140625 4.703125 21.265625 4.703125 16.078125 
C 4.703125 4.59375 14.703125 -1 27.90625 -1 
C 42.703125 -1 51.40625 6.96875 51.40625 18.5625 
C 51.40625 29.4375 42.796875 34.140625 37.703125 36.921875 
M 19.703125 47.265625 
C 17.703125 48.375 14.90625 50.671875 14.90625 53.984375 
C 14.90625 62 25.59375 62 27.90625 62 
C 36.40625 62 41.203125 57.53125 41.203125 50.96875 
C 41.203125 46.890625 39.40625 42.609375 33.703125 39.328125 
z
M 22 30.59375 
L 35.796875 22.734375 
C 39.09375 20.84375 43.40625 18.46875 43.40625 13.40625 
C 43.40625 5.453125 35.40625 2.96875 28.203125 2.96875 
C 18.296875 2.96875 12.703125 8.234375 12.703125 16.078125 
C 12.703125 23.328125 17.203125 27.90625 22 30.59375 
" id="CMBX12-56"/>
      </defs>
      <g transform="translate(39.7561188998 387.171338029)scale(0.16 -0.16)">
       <use transform="scale(0.996264009963)" xlink:href="#CMBX12-56"/>
       <use transform="translate(56.0398505604 0.0)scale(0.996264009963)" xlink:href="#CMMIB10-58"/>
       <use transform="translate(87.86478197 0.0)scale(0.996264009963)" xlink:href="#CMBX12-48"/>
      </g>
     </g>
    </g>
    <g id="ytick_3">
     <g id="line2d_61">
      <g>
       <use style="stroke:#000000;stroke-width:1.5;" x="72.7808601047" xlink:href="#mfefcb219b5" y="300.096132976"/>
      </g>
     </g>
     <g id="line2d_62">
      <g>
       <use style="stroke:#000000;stroke-width:1.5;" x="627.338365115" xlink:href="#m6d5dcb9d90" y="300.096132976"/>
      </g>
     </g>
     <g id="text_10">
      <!-- $15.0$ -->
      <g transform="translate(30.7897428102 304.495604805)scale(0.16 -0.16)">
       <use transform="scale(0.996264009963)" xlink:href="#CMBX12-49"/>
       <use transform="translate(56.0398505604 0.0)scale(0.996264009963)" xlink:href="#CMBX12-53"/>
       <use transform="translate(112.079701121 0.0)scale(0.996264009963)" xlink:href="#CMMIB10-58"/>
       <use transform="translate(143.90463253 0.0)scale(0.996264009963)" xlink:href="#CMBX12-48"/>
      </g>
     </g>
    </g>
    <g id="ytick_4">
     <g id="line2d_63">
      <g>
       <use style="stroke:#000000;stroke-width:1.5;" x="72.7808601047" xlink:href="#mfefcb219b5" y="217.420399753"/>
      </g>
     </g>
     <g id="line2d_64">
      <g>
       <use style="stroke:#000000;stroke-width:1.5;" x="627.338365115" xlink:href="#m6d5dcb9d90" y="217.420399753"/>
      </g>
     </g>
     <g id="text_11">
      <!-- $22.0$ -->
      <g transform="translate(30.7897428102 221.819871582)scale(0.16 -0.16)">
       <use transform="scale(0.996264009963)" xlink:href="#CMBX12-50"/>
       <use transform="translate(56.0398505604 0.0)scale(0.996264009963)" xlink:href="#CMBX12-50"/>
       <use transform="translate(112.079701121 0.0)scale(0.996264009963)" xlink:href="#CMMIB10-58"/>
       <use transform="translate(143.90463253 0.0)scale(0.996264009963)" xlink:href="#CMBX12-48"/>
      </g>
     </g>
    </g>
    <g id="ytick_5">
     <g id="line2d_65">
      <g>
       <use style="stroke:#000000;stroke-width:1.5;" x="72.7808601047" xlink:href="#mfefcb219b5" y="134.744666529"/>
      </g>
     </g>
     <g id="line2d_66">
      <g>
       <use style="stroke:#000000;stroke-width:1.5;" x="627.338365115" xlink:href="#m6d5dcb9d90" y="134.744666529"/>
      </g>
     </g>
     <g id="text_12">
      <!-- $29.0$ -->
      <defs>
       <path d="M 38.703125 28.375 
C 38.703125 21.375 38.703125 2.96875 23.09375 2.96875 
C 20 2.96875 16.40625 3.765625 14.296875 5.375 
C 17.203125 5.96875 19.296875 8.078125 19.296875 11.296875 
C 19.296875 14.90625 16.59375 17.21875 13.40625 17.21875 
C 10.796875 17.21875 7.5 15.515625 7.5 11.109375 
C 7.5 4.109375 13 -1 23.296875 -1 
C 36 -1 51.40625 7.265625 51.40625 32.984375 
C 51.40625 39.671875 51.40625 65.578125 28.296875 65.578125 
C 14.5 65.578125 4.703125 57.625 4.703125 44 
C 4.703125 30.171875 14.296875 22.734375 26.296875 22.734375 
C 30.5 22.734375 35.5 24.21875 38.703125 31.265625 
z
M 27.296875 26 
C 17.40625 26 17.40625 34.046875 17.40625 43.796875 
C 17.40625 53.359375 17.40625 62 28.296875 62 
C 34.703125 62 37 56.34375 37.40625 55.25 
C 38.40625 52.25 38.59375 46.09375 38.59375 42.8125 
C 38.59375 35.859375 35.703125 26 27.296875 26 
" id="CMBX12-57"/>
      </defs>
      <g transform="translate(30.7897428102 139.144138359)scale(0.16 -0.16)">
       <use transform="scale(0.996264009963)" xlink:href="#CMBX12-50"/>
       <use transform="translate(56.0398505604 0.0)scale(0.996264009963)" xlink:href="#CMBX12-57"/>
       <use transform="translate(112.079701121 0.0)scale(0.996264009963)" xlink:href="#CMMIB10-58"/>
       <use transform="translate(143.90463253 0.0)scale(0.996264009963)" xlink:href="#CMBX12-48"/>
      </g>
     </g>
    </g>
    <g id="ytick_6">
     <g id="line2d_67">
      <g>
       <use style="stroke:#000000;stroke-width:1.5;" x="72.7808601047" xlink:href="#mfefcb219b5" y="52.0689333059"/>
      </g>
     </g>
     <g id="line2d_68">
      <g>
       <use style="stroke:#000000;stroke-width:1.5;" x="627.338365115" xlink:href="#m6d5dcb9d90" y="52.0689333059"/>
      </g>
     </g>
     <g id="text_13">
      <!-- $36.0$ -->
      <g transform="translate(30.7897428102 56.4684051351)scale(0.16 -0.16)">
       <use transform="scale(0.996264009963)" xlink:href="#CMBX12-51"/>
       <use transform="translate(56.0398505604 0.0)scale(0.996264009963)" xlink:href="#CMBX12-54"/>
       <use transform="translate(112.079701121 0.0)scale(0.996264009963)" xlink:href="#CMMIB10-58"/>
       <use transform="translate(143.90463253 0.0)scale(0.996264009963)" xlink:href="#CMBX12-48"/>
      </g>
     </g>
    </g>
    <g id="ytick_7">
     <g id="line2d_69">
      <defs>
       <path d="M 0 0 
L 5 0 
" id="m9b1a6efe8e" style="stroke:#000000;"/>
      </defs>
      <g>
       <use style="stroke:#000000;" x="72.7808601047" xlink:href="#m9b1a6efe8e" y="481.982746068"/>
      </g>
     </g>
     <g id="line2d_70">
      <defs>
       <path d="M 0 0 
L -5 0 
" id="mabf203ccd0" style="stroke:#000000;"/>
      </defs>
      <g>
       <use style="stroke:#000000;" x="627.338365115" xlink:href="#mabf203ccd0" y="481.982746068"/>
      </g>
     </g>
    </g>
    <g id="ytick_8">
     <g id="line2d_71">
      <g>
       <use style="stroke:#000000;" x="72.7808601047" xlink:href="#m9b1a6efe8e" y="448.912452778"/>
      </g>
     </g>
     <g id="line2d_72">
      <g>
       <use style="stroke:#000000;" x="627.338365115" xlink:href="#mabf203ccd0" y="448.912452778"/>
      </g>
     </g>
    </g>
    <g id="ytick_9">
     <g id="line2d_73">
      <g>
       <use style="stroke:#000000;" x="72.7808601047" xlink:href="#m9b1a6efe8e" y="432.377306134"/>
      </g>
     </g>
     <g id="line2d_74">
      <g>
       <use style="stroke:#000000;" x="627.338365115" xlink:href="#mabf203ccd0" y="432.377306134"/>
      </g>
     </g>
    </g>
    <g id="ytick_10">
     <g id="line2d_75">
      <g>
       <use style="stroke:#000000;" x="72.7808601047" xlink:href="#m9b1a6efe8e" y="415.842159489"/>
      </g>
     </g>
     <g id="line2d_76">
      <g>
       <use style="stroke:#000000;" x="627.338365115" xlink:href="#mabf203ccd0" y="415.842159489"/>
      </g>
     </g>
    </g>
    <g id="ytick_11">
     <g id="line2d_77">
      <g>
       <use style="stroke:#000000;" x="72.7808601047" xlink:href="#m9b1a6efe8e" y="399.307012844"/>
      </g>
     </g>
     <g id="line2d_78">
      <g>
       <use style="stroke:#000000;" x="627.338365115" xlink:href="#mabf203ccd0" y="399.307012844"/>
      </g>
     </g>
    </g>
    <g id="ytick_12">
     <g id="line2d_79">
      <g>
       <use style="stroke:#000000;" x="72.7808601047" xlink:href="#m9b1a6efe8e" y="382.7718662"/>
      </g>
     </g>
     <g id="line2d_80">
      <g>
       <use style="stroke:#000000;" x="627.338365115" xlink:href="#mabf203ccd0" y="382.7718662"/>
      </g>
     </g>
    </g>
    <g id="ytick_13">
     <g id="line2d_81">
      <g>
       <use style="stroke:#000000;" x="72.7808601047" xlink:href="#m9b1a6efe8e" y="366.236719555"/>
      </g>
     </g>
     <g id="line2d_82">
      <g>
       <use style="stroke:#000000;" x="627.338365115" xlink:href="#mabf203ccd0" y="366.236719555"/>
      </g>
     </g>
    </g>
    <g id="ytick_14">
     <g id="line2d_83">
      <g>
       <use style="stroke:#000000;" x="72.7808601047" xlink:href="#m9b1a6efe8e" y="349.70157291"/>
      </g>
     </g>
     <g id="line2d_84">
      <g>
       <use style="stroke:#000000;" x="627.338365115" xlink:href="#mabf203ccd0" y="349.70157291"/>
      </g>
     </g>
    </g>
    <g id="ytick_15">
     <g id="line2d_85">
      <g>
       <use style="stroke:#000000;" x="72.7808601047" xlink:href="#m9b1a6efe8e" y="333.166426265"/>
      </g>
     </g>
     <g id="line2d_86">
      <g>
       <use style="stroke:#000000;" x="627.338365115" xlink:href="#mabf203ccd0" y="333.166426265"/>
      </g>
     </g>
    </g>
    <g id="ytick_16">
     <g id="line2d_87">
      <g>
       <use style="stroke:#000000;" x="72.7808601047" xlink:href="#m9b1a6efe8e" y="316.631279621"/>
      </g>
     </g>
     <g id="line2d_88">
      <g>
       <use style="stroke:#000000;" x="627.338365115" xlink:href="#mabf203ccd0" y="316.631279621"/>
      </g>
     </g>
    </g>
    <g id="ytick_17">
     <g id="line2d_89">
      <g>
       <use style="stroke:#000000;" x="72.7808601047" xlink:href="#m9b1a6efe8e" y="300.096132976"/>
      </g>
     </g>
     <g id="line2d_90">
      <g>
       <use style="stroke:#000000;" x="627.338365115" xlink:href="#mabf203ccd0" y="300.096132976"/>
      </g>
     </g>
    </g>
    <g id="ytick_18">
     <g id="line2d_91">
      <g>
       <use style="stroke:#000000;" x="72.7808601047" xlink:href="#m9b1a6efe8e" y="283.560986331"/>
      </g>
     </g>
     <g id="line2d_92">
      <g>
       <use style="stroke:#000000;" x="627.338365115" xlink:href="#mabf203ccd0" y="283.560986331"/>
      </g>
     </g>
    </g>
    <g id="ytick_19">
     <g id="line2d_93">
      <g>
       <use style="stroke:#000000;" x="72.7808601047" xlink:href="#m9b1a6efe8e" y="267.025839687"/>
      </g>
     </g>
     <g id="line2d_94">
      <g>
       <use style="stroke:#000000;" x="627.338365115" xlink:href="#mabf203ccd0" y="267.025839687"/>
      </g>
     </g>
    </g>
    <g id="ytick_20">
     <g id="line2d_95">
      <g>
       <use style="stroke:#000000;" x="72.7808601047" xlink:href="#m9b1a6efe8e" y="250.490693042"/>
      </g>
     </g>
     <g id="line2d_96">
      <g>
       <use style="stroke:#000000;" x="627.338365115" xlink:href="#mabf203ccd0" y="250.490693042"/>
      </g>
     </g>
    </g>
    <g id="ytick_21">
     <g id="line2d_97">
      <g>
       <use style="stroke:#000000;" x="72.7808601047" xlink:href="#m9b1a6efe8e" y="233.955546397"/>
      </g>
     </g>
     <g id="line2d_98">
      <g>
       <use style="stroke:#000000;" x="627.338365115" xlink:href="#mabf203ccd0" y="233.955546397"/>
      </g>
     </g>
    </g>
    <g id="ytick_22">
     <g id="line2d_99">
      <g>
       <use style="stroke:#000000;" x="72.7808601047" xlink:href="#m9b1a6efe8e" y="200.885253108"/>
      </g>
     </g>
     <g id="line2d_100">
      <g>
       <use style="stroke:#000000;" x="627.338365115" xlink:href="#mabf203ccd0" y="200.885253108"/>
      </g>
     </g>
    </g>
    <g id="ytick_23">
     <g id="line2d_101">
      <g>
       <use style="stroke:#000000;" x="72.7808601047" xlink:href="#m9b1a6efe8e" y="184.350106463"/>
      </g>
     </g>
     <g id="line2d_102">
      <g>
       <use style="stroke:#000000;" x="627.338365115" xlink:href="#mabf203ccd0" y="184.350106463"/>
      </g>
     </g>
    </g>
    <g id="ytick_24">
     <g id="line2d_103">
      <g>
       <use style="stroke:#000000;" x="72.7808601047" xlink:href="#m9b1a6efe8e" y="167.814959819"/>
      </g>
     </g>
     <g id="line2d_104">
      <g>
       <use style="stroke:#000000;" x="627.338365115" xlink:href="#mabf203ccd0" y="167.814959819"/>
      </g>
     </g>
    </g>
    <g id="ytick_25">
     <g id="line2d_105">
      <g>
       <use style="stroke:#000000;" x="72.7808601047" xlink:href="#m9b1a6efe8e" y="151.279813174"/>
      </g>
     </g>
     <g id="line2d_106">
      <g>
       <use style="stroke:#000000;" x="627.338365115" xlink:href="#mabf203ccd0" y="151.279813174"/>
      </g>
     </g>
    </g>
    <g id="ytick_26">
     <g id="line2d_107">
      <g>
       <use style="stroke:#000000;" x="72.7808601047" xlink:href="#m9b1a6efe8e" y="118.209519885"/>
      </g>
     </g>
     <g id="line2d_108">
      <g>
       <use style="stroke:#000000;" x="627.338365115" xlink:href="#mabf203ccd0" y="118.209519885"/>
      </g>
     </g>
    </g>
    <g id="ytick_27">
     <g id="line2d_109">
      <g>
       <use style="stroke:#000000;" x="72.7808601047" xlink:href="#m9b1a6efe8e" y="101.67437324"/>
      </g>
     </g>
     <g id="line2d_110">
      <g>
       <use style="stroke:#000000;" x="627.338365115" xlink:href="#mabf203ccd0" y="101.67437324"/>
      </g>
     </g>
    </g>
    <g id="ytick_28">
     <g id="line2d_111">
      <g>
       <use style="stroke:#000000;" x="72.7808601047" xlink:href="#m9b1a6efe8e" y="85.1392265952"/>
      </g>
     </g>
     <g id="line2d_112">
      <g>
       <use style="stroke:#000000;" x="627.338365115" xlink:href="#mabf203ccd0" y="85.1392265952"/>
      </g>
     </g>
    </g>
    <g id="ytick_29">
     <g id="line2d_113">
      <g>
       <use style="stroke:#000000;" x="72.7808601047" xlink:href="#m9b1a6efe8e" y="68.6040799505"/>
      </g>
     </g>
     <g id="line2d_114">
      <g>
       <use style="stroke:#000000;" x="627.338365115" xlink:href="#mabf203ccd0" y="68.6040799505"/>
      </g>
     </g>
    </g>
    <g id="ytick_30">
     <g id="line2d_115">
      <g>
       <use style="stroke:#000000;" x="72.7808601047" xlink:href="#m9b1a6efe8e" y="35.5337866612"/>
      </g>
     </g>
     <g id="line2d_116">
      <g>
       <use style="stroke:#000000;" x="627.338365115" xlink:href="#mabf203ccd0" y="35.5337866612"/>
      </g>
     </g>
    </g>
    <g id="text_14">
     <!-- bar $x^2$ -->
     <defs>
      <path d="M 19.796875 46 
L 2.09375 46 
L 2.09375 41.21875 
L 6.203125 41.21875 
C 9.90625 41.21875 10.5 40.515625 10.5 36.203125 
L 10.5 12.296875 
L 10.5 8.296875 
C 10.5 4.296875 9.40625 3.59375 2.90625 3.59375 
L 2.5 3.59375 
L 2.5 0 
L 29.203125 0 
L 29.203125 3.59375 
L 27.296875 3.59375 
C 20.90625 3.59375 19.796875 4.296875 19.796875 8.296875 
L 19.796875 12.296875 
L 19.796875 13.296875 
C 19.796875 20.8125 21.203125 28.40625 23.703125 34.109375 
C 26.09375 39.703125 29.5 42.8125 33.703125 43.3125 
C 32.296875 41.703125 31.90625 40.6875 31.90625 38.765625 
C 31.90625 35.546875 34.203125 33.234375 37.40625 33.234375 
C 41 33.234375 43.5 35.9375 43.5 40.015625 
C 43.5 44.8125 40.09375 48 34.796875 48 
C 28.5 48 23 42.921875 19.796875 34.140625 
z
" id="Century_Schoolbook_L_Roman-114"/>
      <path d="M 45.203125 32.578125 
C 45.203125 38.796875 44.09375 41.96875 41.203125 44.34375 
C 37.90625 46.90625 33 48.28125 26.59375 48.28125 
C 15.40625 48.28125 7.09375 43.046875 7.09375 35.921875 
C 7.09375 32.15625 9.40625 29.78125 12.90625 29.78125 
C 16 29.78125 18.296875 31.859375 18.296875 34.8125 
C 18.296875 36.109375 17.796875 37.484375 16.796875 38.875 
C 16.203125 39.546875 16.09375 39.84375 16.09375 40.15625 
C 16.09375 42.21875 20.203125 44 25 44 
C 28.09375 44 31.59375 43.015625 33.203125 41.53125 
C 35.09375 39.953125 35.796875 37.578125 35.796875 33.125 
L 35.796875 29.28125 
C 25.296875 27.484375 22.09375 26.6875 17.203125 24.8125 
C 8.59375 21.609375 4.40625 16.9375 4.40625 10.65625 
C 4.40625 3.578125 10.09375 -1 18.90625 -1 
C 25.796875 -1 32 1.859375 36.296875 7.0625 
C 37.90625 1.984375 40.40625 0 45.09375 0 
C 49.59375 0 54.296875 2.890625 54.296875 5.78125 
C 54.296875 6.46875 53.796875 6.96875 53.296875 6.96875 
C 52.90625 6.96875 52.5 6.875 51.796875 6.578125 
C 50.203125 6 49.796875 5.890625 49 5.890625 
C 46.203125 5.890625 45.203125 7.78125 45.203125 12.71875 
z
M 35.796875 20.46875 
C 35.796875 14.46875 35.5 13.078125 33.796875 10.484375 
C 31.296875 6.78125 26.703125 4.296875 22.40625 4.296875 
C 17.90625 4.296875 14.5 7.59375 14.5 12.078125 
C 14.5 16.265625 16.59375 19.265625 21 21.359375 
C 24.09375 22.75 28 23.75 35.796875 25.046875 
z
" id="Century_Schoolbook_L_Roman-97"/>
      <path d="M 18 73 
L 0.796875 73 
L 0.796875 68.21875 
L 4.296875 68.21875 
C 8 68.21875 8.59375 67.515625 8.59375 63.25 
L 8.59375 24.625 
C 8.59375 11.3125 8.09375 4.84375 6.796875 -1 
L 10.59375 -1 
L 15.5 6.75 
C 19.59375 1.453125 24.296875 -1 30.5 -1 
C 42.796875 -1 52 9.59375 52 23.828125 
C 52 38.078125 43.59375 48.078125 31.59375 48.078125 
C 25.5 48.078125 21.796875 46 18 40.328125 
z
M 29.796875 43 
C 37.296875 43 41.5 35.765625 41.5 22.796875 
C 41.5 10.3125 37.40625 3.1875 30.09375 3.1875 
C 22.203125 3.1875 17.5 10.40625 17.5 22.59375 
C 17.5 35.765625 21.796875 43 29.796875 43 
" id="Century_Schoolbook_L_Roman-98"/>
     </defs>
     <g transform="translate(22.1554374951 286.36748509)rotate(-90.0)scale(0.192 -0.192)">
      <use transform="scale(0.996264009963)" xlink:href="#Century_Schoolbook_L_Roman-98"/>
      <use transform="translate(55.3916769633 0.0)scale(0.996264009963)" xlink:href="#Century_Schoolbook_L_Roman-97"/>
      <use transform="translate(110.783353927 0.0)scale(0.996264009963)" xlink:href="#Century_Schoolbook_L_Roman-114"/>
      <use transform="translate(182.712092227 0.0)scale(0.996264009963)" xlink:href="#CMMIB10-120"/>
      <use transform="translate(248.36859032 44.084880064)scale(0.697381766617)" xlink:href="#CMBX12-50"/>
     </g>
    </g>
   </g>
   <g id="line2d_117">
    <path clip-path="url(#p732b0d7dc5)" d="M 97.988019 465.447599 
L 198.816657 430.015142 
L 299.645294 370.961047 
L 400.473931 288.285314 
L 501.302569 181.987943 
L 602.131206 52.068933 
" style="fill:none;opacity:0.3;stroke:#ee3311;stroke-linecap:square;stroke-width:2.0;"/>
   </g>
   <g id="patch_3">
    <path d="M 72.78086 31.4 
L 627.338365 31.4 
" style="fill:none;stroke:#000000;stroke-linecap:square;stroke-linejoin:miter;stroke-width:2.0;"/>
   </g>
   <g id="patch_4">
    <path d="M 627.338365 486.116533 
L 627.338365 31.4 
" style="fill:none;stroke:#000000;stroke-linecap:square;stroke-linejoin:miter;stroke-width:2.0;"/>
   </g>
   <g id="patch_5">
    <path d="M 72.78086 486.116533 
L 627.338365 486.116533 
" style="fill:none;stroke:#000000;stroke-linecap:square;stroke-linejoin:miter;stroke-width:2.0;"/>
   </g>
   <g id="patch_6">
    <path d="M 72.78086 486.116533 
L 72.78086 31.4 
" style="fill:none;stroke:#000000;stroke-linecap:square;stroke-linejoin:miter;stroke-width:2.0;"/>
   </g>
   <g id="legend_1">
    <g id="line2d_118">
     <path d="M 101.58086 66.427534 
L 128.78086 66.427534 
" style="fill:none;opacity:0.3;stroke:#ee3311;stroke-linecap:square;stroke-width:2.0;"/>
    </g>
    <g id="line2d_119"/>
    <g id="text_15">
     <!-- myresults.dat -->
     <defs>
      <path d="M 46.5 23 
C 46.59375 37.8125 38.09375 48.28125 25.90625 48.28125 
C 13.09375 48.28125 3.5 37.25 3.5 22.34375 
C 3.5 8.4375 12.59375 -1 26.09375 -1 
C 35.59375 -1 42.40625 3.6875 46.5 13.1875 
L 43 15.09375 
C 38.90625 7.390625 34.703125 4.390625 28 4.390625 
C 22.90625 4.390625 19.203125 6.59375 16.59375 11 
C 14.796875 14 14 17.5 14.09375 23 
z
M 14.203125 27.296875 
C 14.203125 30.34375 14.59375 32.5 15.59375 35.25 
C 17.703125 41.140625 20.90625 44 25.703125 44 
C 31.796875 44 35.796875 38.78125 35.796875 30.921875 
C 35.796875 28.078125 34.90625 27.296875 31.703125 27.296875 
z
" id="Century_Schoolbook_L_Roman-101"/>
      <path d="M 41.203125 0 
L 59.40625 0 
L 59.40625 4.703125 
L 56.90625 4.703125 
C 51.40625 4.703125 50.59375 5.59375 50.59375 11.953125 
L 50.59375 46.78125 
L 31.796875 46.78125 
L 31.796875 42 
L 36.90625 42 
C 40.59375 42 41.203125 41.296875 41.203125 36.953125 
L 41.203125 24.5625 
C 41.203125 18.8125 40.59375 15.484375 39.09375 12.15625 
C 37 7.71875 33 5.09375 28.09375 5.09375 
C 25 5.09375 22.40625 6.1875 21.09375 8.171875 
C 19.796875 10.046875 19.59375 11.046875 19.59375 16.5 
L 19.59375 46.78125 
L 2.09375 46.78125 
L 2.09375 42 
L 5.90625 42 
C 9.59375 42 10.203125 41.296875 10.203125 36.953125 
L 10.203125 15.21875 
C 10.203125 10.078125 10.59375 7.765625 12.09375 5.453125 
C 14.796875 1.3125 19.59375 -1 25.59375 -1 
C 32.203125 -1 36.796875 1.71875 41.203125 8.125 
z
" id="Century_Schoolbook_L_Roman-117"/>
      <path d="M 39 48 
L 35.5 48 
L 32.59375 44.40625 
C 29 47.203125 25.40625 48.390625 20.40625 48.390625 
C 11.59375 48.390625 5.796875 42.625 5.796875 33.953125 
C 5.796875 30.078125 7.09375 26.78125 9.296875 24.8125 
C 11.59375 22.703125 13.90625 21.71875 19.90625 20.3125 
L 25.203125 19.125 
C 33.09375 17.234375 35.90625 15.234375 35.90625 11.265625 
C 35.90625 6.578125 31.796875 3.296875 25.90625 3.296875 
C 17.5 3.296875 11.5 8.765625 9.09375 18.875 
L 5.09375 18.875 
L 5.09375 0 
L 8.59375 0 
L 12.09375 3.90625 
C 16.203125 0.59375 20.796875 -1 25.796875 -1 
C 35.59375 -1 42.09375 5.078125 42.09375 14.34375 
C 42.09375 18.71875 40.703125 22.09375 37.90625 24.390625 
C 35.5 26.484375 33.5 27.28125 27.40625 28.5625 
L 22.40625 29.671875 
C 16.90625 30.859375 16.90625 30.859375 15.09375 31.859375 
C 12.90625 32.859375 11.59375 34.9375 11.59375 37.140625 
C 11.59375 41.109375 15.40625 44 20.90625 44 
C 24.703125 44 27.796875 42.703125 30.59375 40.015625 
C 32.796875 37.8125 33.90625 35.828125 35.5 31.234375 
L 39 31.234375 
z
" id="Century_Schoolbook_L_Roman-115"/>
      <path d="M 38 0 
L 55.40625 0 
L 55.40625 4.703125 
L 53.59375 4.703125 
C 48.203125 4.703125 47.40625 5.703125 47.40625 11.96875 
L 47.40625 73.78125 
L 27.796875 73.78125 
L 27.796875 69 
L 33.703125 69 
C 37.296875 69 38 68.28125 38 63.921875 
L 38 41 
C 34.296875 46.09375 30 48.390625 24.203125 48.390625 
C 12.90625 48.390625 4.296875 37.546875 4.296875 23.203125 
C 4.296875 9.0625 12.59375 -1 24.203125 -1 
C 30.5 -1 34.796875 1.671875 38 7.59375 
z
M 26.203125 43 
C 30.296875 43 34.203125 40.03125 36 35.4375 
C 37.203125 32.453125 37.90625 28.28125 37.90625 23.515625 
C 37.90625 11.96875 33.296875 4.390625 26.09375 4.390625 
C 19.09375 4.390625 14.796875 10.96875 14.796875 22.015625 
C 14.796875 27.890625 15.40625 32.359375 16.703125 35.734375 
C 18.40625 40.125 22.09375 43 26.203125 43 
" id="Century_Schoolbook_L_Roman-100"/>
      <path d="M 20.09375 46 
L 2.296875 46 
L 2.296875 41.21875 
L 6.40625 41.21875 
C 10.09375 41.21875 10.703125 40.515625 10.703125 36.203125 
L 10.703125 12.296875 
L 10.703125 8.40625 
C 10.703125 4.296875 9.59375 3.59375 3.203125 3.59375 
L 2.796875 3.59375 
L 2.796875 0 
L 28 0 
L 28 3.59375 
L 27.59375 3.59375 
C 21.203125 3.59375 20.09375 4.296875 20.09375 8.390625 
L 20.09375 12.28125 
L 20.09375 26.453125 
C 20.09375 35.328125 25 41.921875 31.5 41.921875 
C 34.09375 41.921875 36.90625 40.515625 38.09375 38.625 
C 39.5 36.734375 40.09375 33.828125 40.09375 29.734375 
L 40.09375 12.28125 
L 40.09375 8.28125 
C 40.09375 4.296875 39 3.59375 32.5 3.59375 
L 32.09375 3.59375 
L 32.09375 0 
L 57.40625 0 
L 57.40625 3.59375 
L 57 3.59375 
C 50.59375 3.59375 49.5 4.296875 49.5 8.28125 
L 49.5 12.28125 
L 49.5 25.546875 
C 49.5 35.53125 54 41.921875 61 41.921875 
C 64.296875 41.921875 67 40.015625 68.296875 36.921875 
C 69.203125 34.734375 69.5 32.53125 69.5 28.640625 
L 69.5 12.28125 
L 69.5 8.28125 
C 69.5 4.296875 68.40625 3.59375 61.90625 3.59375 
L 61.5 3.59375 
L 61.5 0 
L 86.796875 0 
L 86.796875 3.59375 
L 86.40625 3.59375 
C 80 3.59375 78.90625 4.296875 78.90625 8.390625 
L 78.90625 12.28125 
L 78.90625 30.640625 
C 78.90625 36.828125 78.296875 38.921875 75.703125 42.3125 
C 72.796875 46.015625 68.703125 48 63.90625 48 
C 57.40625 48 52.59375 44.9375 48.296875 38.109375 
C 46.59375 44.046875 41.203125 48 34.5 48 
C 28.5 48 24 45.140625 20.09375 38.921875 
z
" id="Century_Schoolbook_L_Roman-109"/>
      <path d="M 20.40625 73 
L 1.90625 73 
L 1.90625 68.21875 
L 6.796875 68.21875 
C 10.40625 68.21875 11 67.515625 11 63.21875 
L 11 12.28125 
L 11 8.28125 
C 11 4.296875 9.90625 3.59375 3.5 3.59375 
L 2.796875 3.59375 
L 2.796875 0 
L 28.703125 0 
L 28.703125 3.59375 
L 28 3.59375 
C 21.5 3.59375 20.40625 4.296875 20.40625 8.25 
L 20.40625 12.21875 
z
" id="Century_Schoolbook_L_Roman-108"/>
      <path d="M 19.40625 47 
L 19.40625 67 
L 15.296875 67 
C 14.296875 53.875 9.90625 47.1875 1.796875 46.59375 
L 1.796875 42.703125 
L 10 42.703125 
L 10 17.265625 
C 10 10.28125 10.203125 7.78125 11.203125 5.484375 
C 12.796875 1.296875 16.796875 -1 22.59375 -1 
C 26.5 -1 29.90625 0.203125 32.203125 2.390625 
C 35.5 5.59375 37.40625 10.875 37.40625 16.375 
C 37.40625 16.96875 37.40625 17.671875 37.296875 18.671875 
L 33.09375 18.671875 
C 32.796875 9.6875 30.203125 5.09375 25.296875 5.09375 
C 23 5.09375 21 6.28125 20.296875 7.984375 
C 19.703125 9.375 19.40625 11.875 19.40625 15.46875 
L 19.40625 42.703125 
L 34.09375 42.703125 
L 34.09375 47 
z
" id="Century_Schoolbook_L_Roman-116"/>
      <path d="M 30 13.15625 
L 19 38.8125 
C 18.59375 39.703125 18.40625 40.40625 18.40625 40.90625 
C 18.40625 42.703125 19.59375 43.40625 23 43.40625 
L 25.09375 43.40625 
L 25.09375 47 
L 1.296875 47 
L 1.296875 43.40625 
L 2.40625 43.40625 
C 5.59375 43.40625 7.40625 42 9.203125 38.015625 
L 25.5 1.234375 
L 23.796875 -2.265625 
C 20.203125 -9.828125 15.5 -15.109375 12.296875 -15.109375 
C 11.40625 -15.109375 10.703125 -14.703125 10.703125 -14.109375 
C 10.703125 -13.90625 10.796875 -13.609375 10.90625 -13.203125 
C 11.203125 -12.3125 11.40625 -11.421875 11.40625 -10.625 
C 11.40625 -8.03125 9.203125 -6.140625 6.296875 -6.140625 
C 2.796875 -6.140625 0.296875 -8.734375 0.296875 -12.328125 
C 0.296875 -16.703125 4.203125 -20 9.40625 -20 
C 14.703125 -20 19.203125 -17.40625 23.203125 -12.03125 
C 26.296875 -7.84375 28.296875 -3.84375 32.703125 7.21875 
L 44.09375 35.328125 
C 46.59375 41.40625 48.703125 43.40625 52.5 43.40625 
L 53.09375 43.40625 
L 53.09375 47 
L 33.09375 47 
L 33.09375 43.40625 
L 34.703125 43.40625 
C 38.5 43.40625 40.09375 42.296875 40.09375 39.703125 
C 40.09375 38.703125 39.796875 37.40625 39.09375 35.71875 
z
" id="Century_Schoolbook_L_Roman-121"/>
      <path d="M 13.703125 11.46875 
C 10.203125 11.46875 7.40625 8.671875 7.40625 5.28125 
C 7.40625 1.78125 10.203125 -1 13.59375 -1 
C 17.09375 -1 19.90625 1.78125 19.90625 5.28125 
C 19.90625 8.671875 17.09375 11.46875 13.703125 11.46875 
" id="Century_Schoolbook_L_Roman-46"/>
     </defs>
     <g transform="translate(136.780860105 72.0275339547)scale(0.16 -0.16)">
      <use transform="scale(0.996264009963)" xlink:href="#Century_Schoolbook_L_Roman-109"/>
      <use transform="translate(88.5669066927 0.0)scale(0.996264009963)" xlink:href="#Century_Schoolbook_L_Roman-121"/>
      <use transform="translate(142.066250584 0.0)scale(0.996264009963)" xlink:href="#Century_Schoolbook_L_Roman-114"/>
      <use transform="translate(186.299819281 0.0)scale(0.996264009963)" xlink:href="#Century_Schoolbook_L_Roman-101"/>
      <use transform="translate(236.113019779 0.0)scale(0.996264009963)" xlink:href="#Century_Schoolbook_L_Roman-115"/>
      <use transform="translate(282.238830338 0.0)scale(0.996264009963)" xlink:href="#Century_Schoolbook_L_Roman-117"/>
      <use transform="translate(343.110461015 0.0)scale(0.996264009963)" xlink:href="#Century_Schoolbook_L_Roman-108"/>
      <use transform="translate(374.491774012 0.0)scale(0.996264009963)" xlink:href="#Century_Schoolbook_L_Roman-116"/>
      <use transform="translate(413.245480206 0.0)scale(0.996264009963)" xlink:href="#Century_Schoolbook_L_Roman-115"/>
      <use transform="translate(456.880661144 0.0)scale(0.996264009963)" xlink:href="#Century_Schoolbook_L_Roman-46"/>
      <use transform="translate(484.575830747 0.0)scale(0.996264009963)" xlink:href="#Century_Schoolbook_L_Roman-100"/>
      <use transform="translate(541.761318031 0.0)scale(0.996264009963)" xlink:href="#Century_Schoolbook_L_Roman-97"/>
      <use transform="translate(597.152994994 0.0)scale(0.996264009963)" xlink:href="#Century_Schoolbook_L_Roman-116"/>
     </g>
    </g>
   </g>
  </g>
  <g id="text_16">
   <!-- myplot -->
   <defs>
    <path d="M 20.09375 46 
L 2.796875 46 
L 2.796875 41.21875 
L 6.40625 41.21875 
C 10.09375 41.21875 10.703125 40.515625 10.703125 36.21875 
L 10.703125 -7.75 
L 10.703125 -11.71875 
C 10.703125 -15.71875 9.59375 -16.40625 3.203125 -16.40625 
L 2.796875 -16.40625 
L 2.796875 -20 
L 28.796875 -20 
L 28.796875 -16.40625 
L 27.703125 -16.40625 
C 21.203125 -16.40625 20.09375 -15.71875 20.09375 -11.734375 
L 20.09375 -7.75 
L 20.09375 6.6875 
C 23.40625 0.90625 27.203125 -1.390625 33.296875 -1.390625 
C 44.90625 -1.390625 53.5 9.265625 53.5 23.5 
C 53.5 37.265625 44.90625 48 33.90625 48 
C 27.703125 48 23.59375 45.4375 20.09375 39.515625 
z
M 32.09375 42.609375 
C 39 42.609375 43 35.75 43 24.09375 
C 43 11.265625 38.90625 4 31.796875 4 
C 24.703125 4 20 11.375 20 22.8125 
C 20 35.140625 24.5 42.609375 32.09375 42.609375 
" id="Century_Schoolbook_L_Roman-112"/>
   </defs>
   <g transform="translate(318.20236547 19.0275339547)scale(0.16 -0.16)">
    <use transform="scale(0.996264009963)" xlink:href="#Century_Schoolbook_L_Roman-109"/>
    <use transform="translate(88.5669066927 0.0)scale(0.996264009963)" xlink:href="#Century_Schoolbook_L_Roman-121"/>
    <use transform="translate(142.066250584 0.0)scale(0.996264009963)" xlink:href="#Century_Schoolbook_L_Roman-112"/>
    <use transform="translate(199.251737868 0.0)scale(0.996264009963)" xlink:href="#Century_Schoolbook_L_Roman-108"/>
    <use transform="translate(230.633050864 0.0)scale(0.996264009963)" xlink:href="#Century_Schoolbook_L_Roman-111"/>
    <use transform="translate(280.446251362 0.0)scale(0.996264009963)" xlink:href="#Century_Schoolbook_L_Roman-116"/>
   </g>
  </g>
 </g>
 <defs>
  <clipPath id="p732b0d7dc5">
   <rect height="454.716532729" width="554.557505011" x="72.7808601047" y="31.4"/>
  </clipPath>
 </defs>
</svg>
